<svg width="21" height="21" viewBox="0 0 21 21" fill="none" xmlns="http://www.w3.org/2000/svg">
<path d="M2.625 8.225C2.625 6.26482 2.625 5.28472 3.00648 4.53603C3.34203 3.87747 3.87747 3.34203 4.53603 3.00648C5.28472 2.625 6.26482 2.625 8.225 2.625H12.775C14.7352 2.625 15.7153 2.625 16.464 3.00648C17.1225 3.34203 17.658 3.87747 17.9935 4.53603C18.375 5.28472 18.375 6.26482 18.375 8.225V12.775C18.375 14.7352 18.375 15.7153 17.9935 16.464C17.658 17.1225 17.1225 17.658 16.464 17.9935C15.7153 18.375 14.7352 18.375 12.775 18.375H8.225C6.26482 18.375 5.28472 18.375 4.53603 17.9935C3.87747 17.658 3.34203 17.1225 3.00648 16.464C2.625 15.7153 2.625 14.7352 2.625 12.775V8.225Z" fill="#FDBE22"/>
<path fill-rule="evenodd" clip-rule="evenodd" d="M11.3752 6.99823C11.3752 6.51498 10.9835 6.12323 10.5002 6.12323C10.017 6.12323 9.62524 6.51498 9.62524 6.99823V10.4982C9.62524 10.9815 10.017 11.3732 10.5002 11.3732C10.9835 11.3732 11.3752 10.9815 11.3752 10.4982V6.99823ZM10.5002 13.1232C10.017 13.1232 9.62524 13.515 9.62524 13.9982C9.62524 14.4815 10.017 14.8732 10.5002 14.8732C10.9835 14.8732 11.3752 14.4815 11.3752 13.9982C11.3752 13.515 10.9835 13.1232 10.5002 13.1232Z" fill="#1E2125"/>
</svg>
