<svg width="148" height="49" viewBox="0 0 148 49" fill="none" xmlns="http://www.w3.org/2000/svg">
<rect width="144.422" height="35.7382" transform="translate(3.67676 0.230469) rotate(5.09246)" fill="#FF543E"/>
<path d="M25.9372 14.9158C26.1029 14.0027 25.9439 13.2621 25.4603 12.6941C24.9775 12.1168 24.1084 11.7723 22.853 11.6604C22.0533 11.5891 21.3754 11.6224 20.8195 11.7604C20.2729 11.8991 19.8363 12.118 19.5097 12.4169C19.1924 12.7167 18.9775 13.0771 18.865 13.4983C18.7515 13.8256 18.7288 14.1329 18.7969 14.4201C18.8752 14.6989 19.0439 14.9623 19.3029 15.2104C19.5713 15.4592 19.9301 15.6927 20.3793 15.9109C20.8379 16.1298 21.3864 16.338 22.0249 16.5355L24.2119 17.2366C25.7071 17.7072 26.9464 18.2629 27.9297 18.9035C28.9232 19.5357 29.6843 20.2502 30.2132 21.0472C30.742 21.8442 31.0584 22.7113 31.1623 23.6484C31.2756 24.5865 31.1907 25.5912 30.9078 26.6626C30.4242 28.5129 29.5525 30.038 28.2927 31.2379C27.0329 32.4379 25.4522 33.2952 23.5504 33.81C21.6487 34.3247 19.489 34.4744 17.0712 34.2589C14.5976 34.0385 12.5287 33.4839 10.8646 32.5951C9.21052 31.6979 8.06554 30.4523 7.42962 28.8585C6.80382 27.2562 6.79228 25.2821 7.39499 22.9364L14.7599 23.5927C14.5704 24.4569 14.5979 25.1998 14.8425 25.8214C15.087 26.4431 15.5257 26.9368 16.1586 27.3025C16.7915 27.6682 17.6008 27.895 18.5865 27.9828C19.4234 28.0574 20.1486 28.0189 20.762 27.8674C21.3753 27.7158 21.8702 27.4741 22.2466 27.1421C22.623 26.8101 22.8691 26.4149 22.9849 25.9566C23.0974 25.5354 23.057 25.1475 22.8637 24.7929C22.6703 24.4382 22.2928 24.1 21.7309 23.7781C21.1691 23.4562 20.3867 23.1381 19.3837 22.8237L16.7044 21.9664C14.3271 21.1921 12.5772 20.1083 11.4548 18.7148C10.3324 17.3213 10.0519 15.5248 10.6135 13.3253C11.0735 11.5292 11.9637 10.0058 13.2843 8.75499C14.615 7.49574 16.2439 6.57238 18.1708 5.98489C20.1079 5.38892 22.2109 5.19204 24.4799 5.39424C26.7861 5.59976 28.6813 6.15763 30.1655 7.06785C31.6589 7.9789 32.6829 9.1621 33.2375 10.6175C33.8013 12.0737 33.8414 13.7269 33.3579 15.5771L25.9372 14.9158ZM36.6025 13.1669L38.2194 7.01231L63.0481 9.22491L61.4312 15.3795L52.8388 14.6138L47.1674 36.6035L39.5236 35.9223L45.1949 13.9326L36.6025 13.1669ZM88.526 26.3984C87.7284 29.4579 86.4642 31.9697 84.7333 33.9337C83.0023 35.8978 80.9873 37.3163 78.6881 38.1893C76.3889 39.0623 73.9839 39.3869 71.4731 39.1632C68.795 38.9245 66.522 38.1361 64.6541 36.7981C62.7863 35.46 61.5013 33.6302 60.799 31.3087C60.0967 28.9873 60.1594 26.2325 60.9871 23.0445C61.766 19.9833 63.0218 17.4614 64.7544 15.4788C66.487 13.4961 68.513 12.0598 70.8325 11.1699C73.1519 10.28 75.5763 9.9477 78.1057 10.1731C80.7652 10.4101 83.0239 11.2019 84.8816 12.5484C86.7486 13.8958 88.0278 15.7391 88.7191 18.0784C89.4197 20.4184 89.3554 23.1918 88.526 26.3984ZM80.7943 24.8096C81.2005 23.1962 81.3417 21.8215 81.218 20.6858C81.0951 19.5407 80.7009 18.6526 80.0354 18.0215C79.3708 17.3812 78.434 17.0071 77.2251 16.8994C75.8488 16.7768 74.6008 17.003 73.481 17.578C72.3613 18.1531 71.3967 19.0373 70.5874 20.2305C69.7781 21.4237 69.1552 22.8913 68.7188 24.6333C68.2737 26.262 68.1232 27.6358 68.2672 28.7547C68.4205 29.8743 68.84 30.7412 69.5257 31.3553C70.2208 31.9703 71.1634 32.3308 72.3537 32.4369C73.7114 32.5579 74.94 32.3393 76.0395 31.7812C77.1483 31.2239 78.1019 30.3575 78.9002 29.182C79.7079 28.0074 80.3392 26.5499 80.7943 24.8096ZM88.5986 40.2956L95.8869 12.1513L108.218 13.2502C110.338 13.4391 112.093 13.9846 113.485 14.8865C114.876 15.7884 115.828 16.9933 116.34 18.5012C116.852 20.009 116.851 21.7616 116.335 23.759C115.818 25.775 114.925 27.4341 113.656 28.7363C112.398 30.0301 110.857 30.9613 109.035 31.53C107.223 32.0903 105.229 32.2734 103.053 32.0795L95.6879 31.4232L97.2292 25.4869L103.032 26.004C103.943 26.0852 104.753 26.0449 105.461 25.883C106.17 25.7118 106.76 25.3989 107.232 24.9442C107.704 24.4801 108.042 23.8448 108.245 23.038C108.448 22.2313 108.442 21.5606 108.228 21.026C108.014 20.482 107.615 20.0622 107.032 19.7666C106.45 19.4616 105.713 19.2694 104.82 19.1898L102.086 18.9462L96.354 40.9868L88.5986 40.2956ZM108.681 28.8694L112.479 42.4237L104.054 41.6729L100.424 28.1335L108.681 28.8694ZM115.22 42.668L122.508 14.5237L143.096 16.3584L141.479 22.5129L128.646 21.3693L127.428 26.2097L139.2 27.2588L137.584 33.4134L125.811 32.3642L124.592 37.2046L137.369 38.3432L135.752 44.4977L115.22 42.668Z" fill="#1E2125"/>
</svg>
