<svg width="93" height="94" viewBox="0 0 93 94" fill="none" xmlns="http://www.w3.org/2000/svg">
<path d="M44.5285 15.2119C43.1908 15.2123 41.8561 15.2932 40.6322 15.4418L44.1803 16.5795L48.2013 15.468L45.9016 16.7434L50.4045 16.8881L45.5953 17.1895L46.7722 17.9446C48.6422 17.7311 50.6419 17.2757 52.8103 16.5226C52.3605 16.3012 51.743 16.0793 51.015 15.8955C49.261 15.4527 46.8876 15.2114 44.5288 15.212L44.5285 15.2119ZM40.6014 15.4451C39.6787 15.5581 38.8177 15.7082 38.0768 15.8975C37.3385 16.0861 36.7183 16.3149 36.2823 16.5388C36.754 16.7216 37.2309 16.8906 37.7137 17.0457L42.7012 16.7781L40.6014 15.4451ZM37.7969 17.0719C38.9634 17.4418 40.1666 17.725 41.4238 17.8979L42.7294 17.2243L37.7969 17.0719ZM44.0817 17.4061L42.0457 17.9739C43.3317 18.1109 44.6753 18.1316 46.093 18.012L44.0817 17.4061ZM53.5791 19.1898C46.4685 21.5973 40.6362 21.0923 35.6035 19.2427V60.1905C41.1104 62.3272 47.0416 62.2405 53.5791 59.9584C53.5838 46.3862 53.5799 32.0856 53.5791 19.1901V19.1898ZM57.6556 44.2451C57.6448 44.2451 57.6336 44.2456 57.6226 44.2454C57.7766 44.429 57.9275 44.6207 58.0763 44.8199C59.2829 46.4369 60.3383 48.573 61.1383 50.785C61.4879 51.7509 61.7857 52.7254 62.0167 53.6796L62.5524 50.9632L62.5467 50.9944C62.6001 50.6869 62.6678 50.3891 62.7447 50.0979C62.2947 48.4189 61.5229 46.858 60.5853 45.8054C59.695 44.8055 58.759 44.2678 57.6561 44.245L57.6556 44.2451ZM72.6638 45.108C68.832 45.1181 66.0267 47.1856 65.2822 51.4696L65.2796 51.4854L64.6911 54.7774C67.129 53.2983 69.676 52.359 72.4924 52.4434C75.7095 52.5398 79.2333 53.5235 81.9134 55.2473L81.3919 51.3448L81.3904 51.3278C80.5636 46.7946 76.8401 45.1427 72.664 45.1078L72.6638 45.108ZM56.3562 47.2218V60.0459L59.4063 59.0359L59.4037 59.0226C59.4833 59.0061 59.4446 59.0745 59.5554 58.8158C59.6664 58.5572 59.7692 57.9965 59.7513 57.2692C59.7154 55.8149 59.252 53.735 58.5265 51.7296C57.9283 50.0755 57.1489 48.4608 56.3559 47.2218H56.3562ZM32.8262 49.7003C28.6864 50.6255 24.4476 51.5727 21.2573 52.2886C20.7184 52.4096 20.4303 52.4753 19.9396 52.5855C20.3161 52.855 20.6749 53.1507 21.0112 53.4707C22.9862 55.3497 24.3567 57.9786 25.1171 60.7592C25.8777 63.5396 26.032 66.4832 25.3582 69.0681C25.234 69.5455 25.0763 70.0127 24.8864 70.4636L32.8265 67.8351L32.8262 49.7003ZM15.0447 53.7095C15.0108 53.7102 14.9756 53.7136 14.9413 53.7146L14.8231 53.7415C14.4747 53.8217 14.1513 53.9057 14.2847 53.8677L14.2558 53.8757L14.2269 53.8827C13.7263 54.0027 13.3752 54.2576 13.0299 54.7637C12.6846 55.2701 12.3968 56.0388 12.2407 56.9907C11.9284 58.8944 12.1469 61.4838 12.8458 63.9417C13.5448 66.3991 14.7258 68.729 16.1177 70.2043C17.3718 71.5339 18.6312 72.167 20.1183 71.972C21.4175 71.3059 22.2257 70.0783 22.6713 68.3682C23.1842 66.4003 23.0894 63.8705 22.4391 61.4921C21.7883 59.1136 20.5854 56.8987 19.0973 55.4829C17.8884 54.3328 16.5777 53.6853 15.0447 53.7097V53.7095ZM72.3666 55.2127C69.0991 55.193 66.0127 56.2764 63.847 58.7476L63.3247 61.3946C65.7024 58.9083 69.0482 57.354 72.7502 57.354C76.8062 57.354 80.437 59.2167 82.8332 62.1306L82.4397 59.1869C79.9824 56.8176 76.3024 55.3266 72.7181 55.219C72.6008 55.2156 72.4836 55.2135 72.3668 55.2129L72.3666 55.2127ZM14.2515 57.2243L17.1373 61.6842L19.2455 58.3131L18.2132 62.8109L22.4098 65.271L18.586 64.5393L20.1941 68.7601L17.4625 64.733L15.4896 67.8536L16.3312 63.5946L12.4423 61.3341L16.1563 62.1809L14.2515 57.2243ZM72.7501 59.7878C66.872 59.7878 62.1329 64.527 62.1329 70.4052C62.1329 76.2833 66.872 81.0224 72.7501 81.0224C78.6285 81.0224 83.3677 76.2833 83.3677 70.4052C83.3677 64.5268 78.6283 59.7876 72.7501 59.7876V59.7878ZM53.5791 62.885C47.2638 64.9109 41.2153 65.0456 35.6035 63.1411V69.3188C41.1104 71.4904 47.0413 71.4335 53.5791 69.1757V62.885ZM72.7501 66.629C74.8357 66.629 76.5265 68.3196 76.5265 70.4052C76.5265 72.4907 74.8357 74.1815 72.7501 74.1815C70.6644 74.1815 68.9736 72.4907 68.9736 70.4051C68.9736 68.3193 70.6644 66.6287 72.7501 66.6287V66.629ZM54.0446 71.9504C47.4458 74.1358 41.1346 74.2648 35.3027 72.1715L34.8155 74.2727C40.8158 77.2321 47.9305 77.1928 54.6874 74.2403L54.0446 71.9504Z" fill="white"/>
</svg>
