<svg width="93" height="94" viewBox="0 0 93 94" fill="none" xmlns="http://www.w3.org/2000/svg">
<g clip-path="url(#clip0_3643_13270)">
<path d="M54.4385 46.0769L48.565 50.7987C54.5441 55.6104 62.155 57.9181 69.7995 57.237L69.1555 49.9647C63.9462 50.4294 58.7387 49.0538 54.4385 46.0769ZM28.4383 56.7484C28.4259 56.8395 28.4324 56.9321 28.4575 57.0205C28.4826 57.1089 28.5256 57.1912 28.584 57.2621L31.5161 60.9093C31.6159 61.0393 31.7512 61.1376 31.9057 61.1923C32.0602 61.2469 32.2273 61.2557 32.3866 61.2174C33.2508 60.9823 33.9095 61.9312 34.0568 63.4514L34.5969 68.9415C34.6184 69.163 34.6835 69.378 34.7882 69.5744C34.8929 69.7708 35.0353 69.9446 35.2073 70.0859C35.3792 70.2272 35.5773 70.3332 35.7902 70.3979C36.0032 70.4626 36.2268 70.4847 36.4483 70.463L37.2111 70.3845C37.5678 70.3497 37.9141 70.2449 38.2303 70.0762C38.5465 69.9074 38.8264 69.678 39.0538 69.4011C39.2813 69.1241 39.452 68.805 39.5561 68.462C39.6601 68.1191 39.6956 67.759 39.6604 67.4023L39.0881 61.5827C39.0565 61.2815 39.1006 60.9772 39.2164 60.6973C39.3323 60.4175 39.5161 60.171 39.7514 59.9802L45.0694 55.7048C45.5229 55.3402 45.8129 54.8104 45.8758 54.232C45.9387 53.6536 45.7692 53.0738 45.4046 52.6203L43.6672 50.4589L53.6115 42.4645L48.5413 36.1574L42.0638 41.365L42.6865 42.1395L28.884 53.2357C28.884 53.2357 28.5777 55.8611 28.4383 56.7483L28.4383 56.7484ZM38.6691 57.5033C38.528 57.3278 38.4229 57.1262 38.3597 56.91C38.2965 56.6939 38.2765 56.4674 38.3008 56.2435C38.3252 56.0197 38.3934 55.8028 38.5015 55.6053C38.6097 55.4077 38.7557 55.2335 38.9312 55.0924L41.0242 53.4097C41.1997 53.2686 41.4013 53.1635 41.6175 53.1003C41.8336 53.0371 42.0601 53.0171 42.284 53.0414C42.5078 53.0657 42.7247 53.1339 42.9222 53.2421C43.1198 53.3503 43.294 53.4963 43.4351 53.6718L43.6869 53.9852C43.828 54.1607 43.9332 54.3623 43.9964 54.5784C44.0596 54.7945 44.0796 55.021 44.0552 55.2449C44.0309 55.4688 43.9627 55.6857 43.8545 55.8832C43.7464 56.0807 43.6004 56.255 43.4249 56.3961L41.3254 58.0839C40.9707 58.3662 40.5186 58.4966 40.0681 58.4465C39.6175 58.3964 39.2051 58.17 38.9211 57.8167L38.6691 57.5033ZM17.8587 83.988C17.7534 84.1608 17.619 84.3142 17.4614 84.4412L16.4561 85.2494C16.2726 85.3969 16.0381 85.4654 15.8041 85.44C15.5702 85.4145 15.3558 85.2972 15.2083 85.1138L8.49835 76.7672C8.27271 76.4864 8.16384 76.1295 8.19429 75.7705C8.22474 75.4115 8.39219 75.0781 8.6619 74.8392L21.1652 63.7691L21.2365 63.7118C21.4823 63.5143 21.7726 63.38 22.0822 63.3204L22.7362 63.1931C23.1768 63.1078 23.5751 62.8745 23.8648 62.5317L26.2614 59.6935L29.9297 64.2565L17.8587 83.988ZM73.2093 21.7772C73.0709 21.605 72.8696 21.4948 72.6499 21.4709C72.4302 21.447 72.21 21.5114 72.0377 21.6499L68.9687 24.1171L68.2807 23.2613L72.3695 19.9742L73.8819 20.5787C74.3242 20.7547 74.8053 20.8097 75.2759 20.7382C75.7465 20.6667 76.1896 20.4712 76.5597 20.1718L81.7073 16.0336L80.4853 12.3322C80.4086 12.0995 80.4048 11.8489 80.4743 11.6139C80.5438 11.3789 80.6834 11.1708 80.8743 11.0172L81.0236 10.897C81.5547 10.47 82.3959 10.5023 82.8228 11.0333L85.2287 14.026L86.5147 12.9921L87.5213 14.2441L86.2337 15.2793L86.7035 15.8639L71.9006 27.7643L70.013 25.4163L73.082 22.9488C73.2542 22.8103 73.3644 22.6091 73.3883 22.3894C73.4122 22.1697 73.3478 21.9495 73.2093 21.7772ZM65.6551 25.316L68.5728 28.9452C68.7729 29.1939 68.8724 29.5085 68.8518 29.827C68.8311 30.1455 68.6918 30.4447 68.4613 30.6655L58.1362 40.554C58.0085 40.6763 57.8568 40.7707 57.6907 40.8312C57.5246 40.8918 57.3477 40.9171 57.1712 40.9056C56.9948 40.8941 56.8227 40.846 56.6658 40.7644C56.509 40.6829 56.3708 40.5696 56.26 40.4317L52.5644 35.8346C52.3526 35.571 52.2541 35.2341 52.2906 34.8979C52.3271 34.5617 52.4957 34.2538 52.7593 34.0419L63.8597 25.1178C63.9902 25.0129 64.1401 24.9347 64.3009 24.8877C64.4616 24.8407 64.63 24.8258 64.7965 24.8439C64.963 24.862 65.1243 24.9127 65.2712 24.9932C65.418 25.0736 65.5476 25.1822 65.6526 25.3127L65.6551 25.316Z" fill="#404144"/>
</g>
<defs>
<clipPath id="clip0_3643_13270">
<rect width="93" height="93" fill="white" transform="translate(0 0.5)"/>
</clipPath>
</defs>
</svg>
