<svg width="93" height="94" viewBox="0 0 93 94" fill="none" xmlns="http://www.w3.org/2000/svg">
<path d="M29.676 15.0078C32.4139 15.6304 34.8583 16.5101 36.98 17.5817C40.9919 19.6079 43.8892 22.3317 45.3452 25.3453C45.4493 25.294 45.5535 25.2474 45.6577 25.1998C47.8466 21.3972 51.766 17.8836 55.5129 15.9795L57.4251 15.0078H29.676ZM58.051 15.0078L57.2385 17.4631C56.8502 18.6363 56.2203 20.5366 55.8253 22.3637C55.6238 23.2957 55.5251 24.2176 55.5076 24.9616C56.7318 25.3171 57.8355 25.7186 58.7771 26.013L59.6678 26.2911L59.3372 37.3854C65.333 37.0575 71.5652 36.4737 78.4125 35.6302C77.5818 35.5159 76.9418 34.9502 76.5312 34.3345C76.0716 35.0238 75.3247 35.6523 74.3438 35.6523C73.3628 35.6523 72.6159 35.0238 72.1562 34.3345C71.6966 35.0238 70.9497 35.6523 69.9688 35.6523C68.9878 35.6523 68.2409 35.0238 67.7812 34.3345C67.3216 35.0238 66.5747 35.6523 65.5938 35.6523C64.4337 35.6523 63.5994 34.7738 63.1824 33.9546C62.7654 33.1354 62.5601 32.2221 62.4198 31.3323C62.291 30.5154 62.2307 29.7201 62.2013 29.0898H62.1758V28.2132C62.1745 28.1076 62.1745 28.002 62.1758 27.8964V15.0078H58.051ZM64.6367 15.9648V26.6289H66.5508V15.9648H64.6367ZM69.0117 15.9648V26.6289H70.9258V15.9648H69.0117ZM73.3867 15.9648V26.6289H75.3008V15.9648H73.3867ZM77.7617 15.9648V26.6289H79.6758V15.9648H77.7617ZM20.2538 16.4369C19.8259 16.4343 19.3929 16.4376 18.955 16.4465C18.2374 16.4613 17.4908 16.5114 16.7467 16.5586C15.9434 19.8419 16.1155 23.1353 16.9238 26.5009C23.6048 26.1879 29.6263 27.3212 34.7903 30.12C37.5701 29.9379 40.0146 29.3116 42.9374 26.9088C43.0309 26.8321 43.1254 26.7567 43.221 26.6826C42.1051 24.192 39.6516 21.688 35.8705 19.7783C31.9522 17.7993 26.6718 16.4758 20.2538 16.4369ZM21.02 19.2939C22.138 19.2939 23.0708 20.2266 23.0708 21.3447C23.0708 22.4627 22.138 23.3955 21.02 23.3955C19.9019 23.3955 18.9692 22.4627 18.9692 21.3447C18.9692 20.2266 19.9019 19.2939 21.02 19.2939ZM53.9396 19.8638C52.2824 21.0873 50.6754 22.6132 49.3803 24.2087C49.8174 24.1674 50.2564 24.1491 50.6955 24.154C51.0464 24.1584 51.397 24.1765 51.7465 24.2086C52.1717 24.2474 52.5886 24.3051 52.9977 24.3744C53.0677 23.5474 53.2355 22.6969 53.4199 21.8438C53.5685 21.1563 53.7577 20.5128 53.9394 19.8638H53.9396ZM21.02 20.9346C20.8081 20.9346 20.6099 21.1328 20.6099 21.3447C20.6099 21.5566 20.8081 21.7549 21.02 21.7549C21.2319 21.7549 21.4302 21.5566 21.4302 21.3447C21.4302 21.1328 21.2319 20.9346 21.02 20.9346ZM50.2807 26.6089C48.3882 26.6366 46.4799 27.1823 44.5001 28.8101C40.6914 31.941 37.104 32.5432 33.5601 32.6378C30.1141 32.7298 26.6604 32.4494 22.3223 33.5682C21.7856 34.2112 21.5788 35.2354 21.883 36.8035C22.2174 38.5271 23.1731 40.7134 24.6196 42.9794C27.5125 47.5112 32.3468 52.3769 37.6841 55.2984L38.2198 55.5917L39.011 60.8794C39.7803 60.936 40.5368 60.9807 41.2834 61.0131L40.4631 54.6795C32.0097 49.9758 25.7371 43.0034 24.0494 35.9855C24.97 35.7394 25.6723 35.5505 26.451 35.4433C33.1585 34.6033 39.0199 36.0819 47.0894 29.7235C48.0181 28.9917 49.0671 28.6938 50.1387 28.6404C50.2728 28.6339 50.407 28.6309 50.5413 28.6316C51.4827 28.6357 52.4322 28.8087 53.3249 29.0241C54.6638 29.3471 55.9752 29.7706 57.0937 30.053L57.1527 28.0768C55.3948 27.4998 53.4981 26.8395 51.5227 26.6594C51.2355 26.6329 50.9475 26.6164 50.6591 26.6102C50.533 26.6075 50.4068 26.6072 50.2807 26.6089ZM19.1892 28.8837C18.1428 28.8824 17.0967 28.9182 16.0529 28.991L15.5547 29.0252V35.3503C16.8006 35.5105 18.0473 35.6648 19.2946 35.8131C19.6311 30.2779 24.3271 30.3776 28.7461 30.2282C25.8135 29.3318 22.6289 28.8909 19.1892 28.8837ZM64.6701 29.0898C64.698 29.6363 64.7468 30.2887 64.8508 30.9489C64.9692 31.6998 65.1666 32.4271 65.3758 32.8384C65.5851 33.2496 65.601 33.1914 65.5938 33.1914C65.5865 33.1914 65.6024 33.2496 65.8117 32.8384C66.0209 32.4271 66.2183 31.6998 66.3367 30.9489C66.4406 30.2886 66.4895 29.6363 66.5174 29.0898H64.6701ZM69.0451 29.0898C69.073 29.6363 69.1218 30.2887 69.2258 30.9489C69.3442 31.6998 69.5416 32.4271 69.7508 32.8384C69.9601 33.2496 69.976 33.1914 69.9688 33.1914C69.9615 33.1914 69.9774 33.2496 70.1867 32.8384C70.3959 32.4271 70.5933 31.6998 70.7117 30.9489C70.8156 30.2886 70.8645 29.6363 70.8924 29.0898H69.0451ZM73.4201 29.0898C73.448 29.6363 73.4968 30.2887 73.6008 30.9489C73.7192 31.6998 73.9166 32.4271 74.1258 32.8384C74.3351 33.2496 74.351 33.1914 74.3438 33.1914C74.3365 33.1914 74.3524 33.2496 74.5617 32.8384C74.7709 32.4271 74.9683 31.6998 75.0867 30.9489C75.1906 30.2886 75.2395 29.6363 75.2674 29.0898H73.4201ZM77.7951 29.0898C77.823 29.6363 77.8718 30.2887 77.9758 30.9489C78.0942 31.6998 78.2916 32.4271 78.5008 32.8384C78.7101 33.2496 78.726 33.1914 78.7188 33.1914C78.7115 33.1914 78.7274 33.2496 78.9367 32.8384C79.1459 32.4271 79.3433 31.6998 79.4617 30.9489C79.5656 30.2886 79.6145 29.6363 79.6424 29.0898H77.7951ZM50.611 31.0971C49.8019 31.0835 49.1323 31.2467 48.6126 31.6563C40.1549 38.3204 33.3571 37.2079 27.2458 37.8353C29.5221 43.2847 35.0017 48.959 42.1876 52.8274L42.7435 53.1268L43.7732 61.0762C47.8758 61.1024 51.8076 60.7374 56.2023 59.9537L57.0185 32.5834C55.5593 32.2768 54.1051 31.744 52.7478 31.4165C51.9541 31.2251 51.2403 31.1075 50.611 31.0971ZM58.3597 62.0388C50.7729 63.5267 44.4648 63.8693 36.981 63.1636L38.5081 71.93C45.8455 72.4112 51.1463 72.2565 58.1087 70.8216L58.3597 62.0388ZM55.7906 73.7688C52.228 74.3629 48.9707 74.6188 45.5299 74.6371L46.1018 79.0519C47.8251 79.4755 49.4582 79.522 50.8823 79.3124C53.589 78.914 55.3645 77.4954 55.7065 76.5859L55.7906 73.7688ZM41.0555 74.5405L41.4194 76.9734C42.0833 77.4124 42.7792 77.8009 43.5014 78.1355L43.045 74.6123C42.3941 74.5959 41.7298 74.5708 41.0555 74.5405Z" fill="white"/>
</svg>
