<svg width="93" height="94" viewBox="0 0 93 94" fill="none" xmlns="http://www.w3.org/2000/svg">
<path d="M21.1057 85.3423C18.1265 85.3426 15.1437 84.192 12.8624 81.8824C8.29959 77.2626 8.29863 69.8199 12.8624 65.2004C13.8272 64.2238 17.5633 61.5735 22.2968 58.5387C25.6376 56.3967 29.5426 53.985 33.5477 51.5527C32.8447 49.6353 32.5199 47.6097 32.5718 45.5904C40.8646 39.4599 47.6985 35.0918 52.9564 32.4238C55.891 30.638 60.5105 28.2865 64.3078 26.4209C63.3261 26.1596 62.2107 26.1393 61.0294 26.2993C58.8553 26.5934 56.288 27.479 53.2218 28.9232C48.0002 31.3829 41.3406 35.4992 33.2524 41.3449C33.9805 38.929 35.2883 36.655 37.1762 34.7443C43.3222 28.523 84.5377 9.33362 84.5377 9.33362C84.5377 9.33362 65.579 51.0518 59.433 57.2719C57.5428 59.1855 55.2918 60.5077 52.9015 61.2436C58.6799 53.0555 62.7527 46.3174 65.1834 41.0309C66.6104 37.9274 67.4855 35.3287 67.7763 33.128C67.9341 31.9325 67.9141 30.8037 67.6562 29.8097C65.8179 33.6422 63.4978 38.3026 61.7352 41.274C59.1004 46.5998 54.7816 53.5279 48.7177 61.9328C48.5859 61.9365 48.454 61.9381 48.3222 61.9379C48.1902 61.9379 48.0584 61.9363 47.9266 61.9331C46.1937 61.8909 44.4678 61.5591 42.8218 60.94C40.4202 64.9955 38.0411 68.9518 35.9251 72.333C32.927 77.1245 30.3081 80.9062 29.3436 81.8826C27.0625 84.191 24.0847 85.3423 21.1055 85.3425L21.1057 85.3423ZM20.0996 81.4922C23.8511 81.4922 26.8614 78.4504 26.8614 74.6533C26.8614 70.8557 23.8511 67.8091 20.0996 67.8091C16.3487 67.8091 13.3381 70.8557 13.3381 74.6533C13.3381 78.4509 16.3484 81.4924 20.0999 81.4924L20.0996 81.4922ZM31.1955 69.3189C34.4408 69.3189 37.0464 66.6814 37.0464 63.3971C37.0464 60.1118 34.4406 57.4748 31.1958 57.4748C27.9504 57.4748 25.3449 60.1119 25.3449 63.3969C25.3449 66.6821 27.9506 69.3191 31.1957 69.3191L31.1955 69.3189ZM40.0543 59.1514C42.6318 59.1514 44.6988 57.0594 44.6988 54.4503C44.6988 51.8411 42.6318 49.7491 40.0543 49.7491C37.4767 49.7491 35.4097 51.8411 35.4097 54.4503C35.4097 57.0597 37.4767 59.1514 40.0543 59.1514ZM47.0563 50.5243C48.8045 50.5243 50.1992 49.1127 50.1992 47.3429C50.1992 45.5732 48.8042 44.1617 47.056 44.1617C45.3075 44.1617 43.9129 45.5732 43.9129 47.3431C43.9129 49.1133 45.3072 50.5246 47.0558 50.5246L47.0563 50.5243Z" fill="#404144"/>
</svg>
