<svg width="93" height="94" viewBox="0 0 93 94" fill="none" xmlns="http://www.w3.org/2000/svg">
<g clip-path="url(#clip0_3643_13219)">
<g clip-path="url(#clip1_3643_13219)">
<path d="M11.7651 42.0532L13.2632 53.8914L70.2829 20.9711L64.744 11.466L27.7047 32.8507L32.2118 40.6571L30.1059 41.8729L25.5989 34.0665L23.2572 35.4185L27.7642 43.2249L25.659 44.4403L21.152 36.6339L18.7044 38.047L23.2115 45.8534L21.1056 47.0693L16.5986 39.2628L11.7651 42.0532ZM67.5071 12.8581L70.8028 18.5664L73.4264 17.0516L70.1307 11.3434L67.5071 12.8581ZM15.3269 55.5076L20.8091 58.3352L28.2625 86.95L43.1189 79.7155L38.1999 64.2118L54.4487 54.8306L50.0026 42.3753L74.1939 27.6835L71.5071 23.0721L15.3268 55.5078L15.3269 55.5076ZM47.3586 43.9812L50.7463 53.4704L37.2617 61.2557L34.2977 51.9135L36.0343 50.8589L38.5995 56.023L41.7021 56.7729L39.1155 51.9675L41.2634 47.6829L47.3587 43.9811L47.3586 43.9812Z" fill="white"/>
</g>
</g>
<defs>
<clipPath id="clip0_3643_13219">
<rect width="93" height="93" fill="white" transform="translate(0 0.5)"/>
</clipPath>
<clipPath id="clip1_3643_13219">
<rect width="83" height="83" fill="white" transform="translate(-10.1899 32.31) rotate(-30)"/>
</clipPath>
</defs>
</svg>
