<svg width="93" height="94" viewBox="0 0 93 94" fill="none" xmlns="http://www.w3.org/2000/svg">
<path d="M81.8965 9.81363L32.3101 38.1962L35.8329 43.6628L83.7923 12.7559L81.8965 9.81363ZM70.3818 24.828L51.5431 36.9678L54.1616 38.635C61.5256 33.3691 67.3921 28.7303 70.2546 25.4151L70.3816 24.828H70.3818ZM48.8755 38.6871L32.8399 49.0208L36.1199 50.9635C41.5689 47.3496 46.8487 43.7877 51.6211 40.4349L48.8755 38.6871ZM29.8448 39.6924L28.8475 40.3349C27.7914 43.5348 28.6233 46.1502 30.0983 47.3581L33.4099 45.2243L29.8448 39.6925V39.6924ZM26.0475 46.4262C25.1647 47.3121 23.977 48.5399 22.4779 50.2122C19.7192 53.2892 16.6558 57.1862 15.5159 59.8865C12.5462 66.9218 13.0591 75.5802 12.6331 83.5473C13.0191 84.6812 13.4992 85.1361 13.9459 85.331C14.42 85.5379 15.0504 85.5222 15.8262 85.199C17.3305 84.5728 18.9806 82.7014 19.3916 81.1499C19.3637 80.7925 19.2442 79.2093 19.1934 77.0431C19.1364 74.6183 19.154 71.7576 19.6147 69.6283C20.4395 65.8134 21.7599 61.7502 24.4623 58.5695C26.0947 56.6488 28.8076 54.9692 31.176 53.629C31.9255 53.2046 32.5638 52.8724 33.1644 52.564C29.9805 50.5957 27.2937 49.7291 26.0475 46.4262ZM16.7985 52.4789L10.7705 54.0228L13.2643 57.8922C14.1343 56.1283 15.3992 54.2748 16.798 52.4789H16.7985ZM36.9557 53.8915L36.7709 53.9767C36.7709 53.9767 35.6875 54.4758 34.193 55.2649C34.153 57.025 33.2978 58.4257 32.1723 59.3488C31.2928 60.0703 30.2473 60.4448 29.3211 60.4211C28.6236 60.4031 27.9844 60.2021 27.3971 59.6924C27.1088 59.9518 26.859 60.2017 26.6594 60.4361C26.268 60.8967 25.9083 61.3907 25.5752 61.9091C26.6611 62.8052 27.9631 63.2704 29.2473 63.3031C30.971 63.3473 32.6446 62.6902 34.0007 61.5777C36.0433 59.9022 37.3596 57.0661 36.9556 53.8918L36.9557 53.8915Z" fill="#404144"/>
</svg>
