<svg width="93" height="94" viewBox="0 0 93 94" fill="none" xmlns="http://www.w3.org/2000/svg">
<path d="M74.6971 10.5494C73.7811 10.6032 72.9743 10.8257 72.772 11.9759L75.2998 14.9487L36.875 45.9037C36.8734 45.9037 36.8714 45.9044 36.8698 45.9037C35.0373 45.8592 34.148 47.1334 33.8606 47.7455C32.3513 50.9615 31.4246 54.4144 29.499 57.6704C23.642 62.9812 16.2119 67.9207 11.5454 73.4159C14.3467 77.2314 18.166 80.546 21.4746 84.1111C22.8136 84.0305 23.56 82.5523 24.5394 81.6187C28.8739 73.5325 32.0276 66.1768 37.1081 58.6812C39.0301 57.4613 41.3589 56.2756 42.4224 54.9828C42.5411 55.0296 42.6653 55.0615 42.792 55.078C43.6941 55.2005 44.4034 55.4399 44.9198 55.7935C45.371 56.1026 45.7161 56.5099 45.9888 57.1901C45.1945 61.6751 46.5837 64.0531 47.1641 66.2538C47.2647 66.6391 47.5141 66.9701 47.8588 67.1759C48.2035 67.3817 48.616 67.4459 49.0081 67.3547L56.2219 65.6882C56.4573 65.6336 56.6764 65.525 56.8614 65.3712C57.0465 65.2174 57.1922 65.0227 57.2869 64.8029C57.3816 64.5831 57.4226 64.3444 57.4066 64.106C57.3906 63.8677 57.3179 63.6364 57.1946 63.4309C55.9528 61.3713 55.3038 58.4661 54.7476 55.323C57.5858 54.4566 59.4328 52.3633 61.0901 50.6932C61.1717 50.61 61.229 50.5065 61.2557 50.3937C61.2825 50.2808 61.2778 50.163 61.2421 50.0526L59.9453 46.0237L62.5693 43.8664C62.6948 43.7622 62.8026 43.639 62.8887 43.5012C68.267 47.3306 73.8862 50.7505 80.3506 52.7403L81.8553 48.8165C75.7127 46.7745 68.2738 42.5813 63.7244 38.291L64.6464 37.3403L80.5635 20.8692L81.5108 19.8883L80.6342 18.8473L80.5328 18.722L84.5603 14.6484L83.1775 13.2823L80.1736 15.8397L74.6971 10.5494ZM59.0738 32.6612L60.0513 34.0424L55.6743 37.726C55.6727 37.7276 55.6711 37.7292 55.6695 37.7308L43.3034 48.106L42.0422 46.7297L59.0739 32.6611L59.0738 32.6612ZM58.8711 46.9049L59.8892 50.0728C58.3224 51.6654 56.7661 53.3106 54.5245 54.0469C54.3501 53.0126 54.1771 51.9617 53.9928 50.9137L58.871 46.905L58.8711 46.9049Z" fill="#404144"/>
</svg>
