<svg width="93" height="94" viewBox="0 0 93 94" fill="none" xmlns="http://www.w3.org/2000/svg">
<path d="M58.9103 18.0001L54.2461 28.7737L59.277 30.9268L63.9413 20.1533L58.9102 18L58.9103 18.0001ZM35.1172 18.0431L30.0501 20.1103L34.5283 30.9615L39.5955 28.8942L35.1173 18.0431H35.1172ZM39.0201 18.8406L37.9928 19.2679L41.6269 28.076L42.4606 30.0973L40.4294 30.9207L35.3627 32.9879L33.3299 33.8168L32.4962 31.796L28.8881 23.0561L27.486 23.6393C29.6745 26.5479 30.6574 30.1804 30.2322 33.7881C29.807 37.3959 28.006 40.704 25.2005 43.0307V47.6111H37.0123V57.4133H25.2004V59.2049H37.0122V69.0209H25.2004V73.8358C27.3225 75.9458 37.1619 77 47.0015 77C56.841 77 66.6805 75.9458 68.8026 73.8358V69.0209H56.9906V59.2065H68.8026V57.413H56.9868V47.5984H68.7983V43.0193C65.9928 40.6926 64.1919 37.3845 63.7667 33.7767C63.3415 30.169 64.3244 26.5365 66.5129 23.6279L65.0805 23.0313L61.291 31.7833L60.4216 33.7911L58.4025 32.9266L53.3784 30.784L51.3594 29.9196L52.2288 27.912L55.9783 19.2499L54.9814 18.8405C54.1907 20.2555 53.0338 21.4347 51.6306 22.2556C50.2274 23.0765 48.6289 23.5094 47.0008 23.5094C45.3726 23.5094 43.7741 23.0765 42.3709 22.2556C40.9677 21.4347 39.8108 20.2557 39.0201 18.8406ZM23 49.7836V55.2296H34.816V49.7836H23ZM59.184 49.7836V55.2296H71V49.7836H59.184ZM23 61.3912V66.8373H34.816V61.391H23V61.3912ZM59.184 61.3912V66.8373H71V61.391H59.184V61.3912Z" fill="#404144"/>
</svg>
