<svg width="41" height="41" viewBox="0 0 41 41" fill="none" xmlns="http://www.w3.org/2000/svg">
<path fill-rule="evenodd" clip-rule="evenodd" d="M14.1671 14.167C14.8343 13.4999 15.9159 13.4999 16.5831 14.167L20.5001 18.0841L24.4171 14.167C25.0843 13.4999 26.1659 13.4999 26.8331 14.167C27.5002 14.8342 27.5002 15.9158 26.8331 16.583L22.916 20.5L26.8331 24.417C27.5002 25.0842 27.5002 26.1658 26.8331 26.833C26.1659 27.5001 25.0843 27.5001 24.4171 26.833L20.5001 22.9159L16.5831 26.833C15.9159 27.5001 14.8343 27.5001 14.1671 26.833C13.5 26.1658 13.5 25.0842 14.1671 24.417L18.0841 20.5L14.1671 16.583C13.5 15.9158 13.5 14.8342 14.1671 14.167Z" fill="#FDFFFF"/>
</svg>
