<svg width="65" height="39" viewBox="0 0 65 39" fill="none" xmlns="http://www.w3.org/2000/svg">
<rect width="65" height="39" transform="translate(-0.00683594)" fill="#48FA4F"/>
<path d="M24.0273 14C24.1125 13.0625 23.8852 12.3286 23.3454 11.7983C22.8057 11.2585 21.8966 10.9886 20.6182 10.9886C19.8038 10.9886 19.122 11.0833 18.5727 11.2727C18.0329 11.4621 17.6115 11.7225 17.3085 12.054C17.0149 12.3854 16.8303 12.7689 16.7545 13.2045C16.6693 13.5455 16.674 13.858 16.7687 14.142C16.8729 14.4167 17.067 14.6676 17.3511 14.8949C17.6447 15.1222 18.0282 15.3258 18.5017 15.5057C18.9846 15.6856 19.5576 15.8466 20.2204 15.9886L22.4932 16.5C24.0462 16.8409 25.3483 17.2907 26.3994 17.8494C27.46 18.3987 28.2934 19.0521 28.8994 19.8097C29.5055 20.5672 29.9032 21.4148 30.0926 22.3523C30.2915 23.2898 30.2962 24.3125 30.1068 25.4205C29.7848 27.3333 29.0415 28.9526 27.8767 30.2784C26.7119 31.6042 25.192 32.6127 23.317 33.304C21.442 33.9953 19.2735 34.3409 16.8113 34.3409C14.2924 34.3409 12.1523 33.9669 10.3909 33.2187C8.639 32.4612 7.37006 31.3059 6.58407 29.7528C5.80756 28.1903 5.61816 26.197 6.01589 23.7727H13.5159C13.4023 24.6629 13.497 25.411 13.8 26.017C14.103 26.6231 14.5907 27.0824 15.263 27.3949C15.9354 27.7074 16.7735 27.8636 17.7773 27.8636C18.6295 27.8636 19.3587 27.7595 19.9648 27.5511C20.5708 27.3428 21.049 27.054 21.3994 26.6847C21.7498 26.3153 21.9629 25.8939 22.0386 25.4205C22.1144 24.9848 22.0386 24.5966 21.8113 24.2557C21.5841 23.9148 21.1721 23.607 20.5755 23.3324C19.979 23.0578 19.1598 22.8068 18.1182 22.5795L15.3341 21.9545C12.8625 21.3864 10.997 20.4489 9.73748 19.142C8.47801 17.8352 8.03294 16.0455 8.40225 13.7727C8.70529 11.9167 9.4676 10.2973 10.6892 8.91477C11.9202 7.52273 13.4827 6.44318 15.3767 5.67614C17.2801 4.89962 19.3871 4.51136 21.6977 4.51136C24.0462 4.51136 26.0112 4.90436 27.5926 5.69034C29.1835 6.47632 30.3246 7.57954 31.0159 9C31.7166 10.4205 31.906 12.0871 31.5841 14H24.0273ZM41.1792 29.9659L44.6452 8.94318H51.0088L47.5429 29.9659H41.1792ZM35.0429 22.6364L36.1224 16.2727H57.1452L56.0656 22.6364H35.0429Z" fill="#1E2125"/>
</svg>
