<svg width="36" height="36" viewBox="0 0 36 36" fill="none" xmlns="http://www.w3.org/2000/svg">
<path d="M19.9467 9.09704C22.522 11.3952 22.6614 15.1953 23.042 18.4049C23.0733 18.6691 23.0733 18.6691 23.1053 18.9388C23.3992 21.5993 23.4794 24.2639 23.4791 26.9389C23.4795 27.4007 23.4827 27.8624 23.486 28.3241C23.4865 28.6237 23.4868 28.9232 23.487 29.2227C23.4883 29.3578 23.4895 29.4929 23.4908 29.6321C23.4852 30.9812 23.3493 32.4016 22.3967 33.422C21.861 33.691 21.3122 33.8485 20.7342 34.0017C20.5768 34.0459 20.4195 34.09 20.2574 34.1355C19.0998 34.4478 17.9963 34.6251 16.7967 34.647C16.5863 34.6536 16.5863 34.6536 16.3717 34.6603C14.7488 34.6884 13.146 34.5328 11.5326 34.3768C11.0459 34.3301 10.5591 34.286 10.0722 34.242C4.98415 33.7673 4.98415 33.7673 3.84667 32.722C2.1446 30.6091 3.10825 25.5793 3.27792 23.0642C3.28871 22.8796 3.2995 22.695 3.31061 22.5048C3.43506 20.8989 3.88767 19.5022 5.07167 18.372C6.09174 17.909 6.91721 17.7703 8.0289 17.7835C8.17482 17.7834 8.32074 17.7833 8.47108 17.7832C8.77905 17.7836 9.08702 17.7853 9.39498 17.7882C9.85501 17.7923 10.3149 17.7918 10.7749 17.7906C12.2512 17.7929 13.7157 17.8413 15.1848 17.9926C15.3093 18.0047 15.4339 18.0167 15.5622 18.0292C16.9702 18.1931 18.083 18.5919 18.989 19.7187C20.5017 22.0861 19.9871 25.557 19.7935 28.1939C19.7798 28.4012 19.766 28.6085 19.7518 28.8221C19.4933 32.4295 19.4933 32.4295 18.5467 33.597C18.8296 33.4819 19.1098 33.3603 19.3889 33.2361C19.5452 33.1691 19.7015 33.1021 19.8626 33.0331C20.6681 32.4559 20.8201 31.604 20.9878 30.6754C21.0338 30.3591 21.0767 30.0423 21.117 29.7252C21.1498 29.4668 21.1498 29.4668 21.1834 29.2033C21.3493 27.7483 21.4029 26.2999 21.4123 24.8361C21.4147 24.6305 21.4171 24.4248 21.4196 24.2129C21.4081 22.0368 21.1694 19.9136 19.6794 18.2483C17.3619 16.0072 12.6368 16.5719 9.66542 16.6002C9.3357 16.6019 9.00598 16.6035 8.67626 16.6049C7.88304 16.6087 7.08987 16.6147 6.29667 16.622C6.40386 16.1784 6.51201 15.735 6.6207 15.2918C6.6506 15.1676 6.68051 15.0434 6.71132 14.9154C7.34035 12.3626 8.43095 9.89552 10.7448 8.49001C13.6079 6.96302 17.3391 7.07353 19.9467 9.09704ZM6.64667 22.222C6.31798 22.5507 6.40324 23.1039 6.37324 23.5455C6.35857 23.755 6.34391 23.9646 6.3288 24.1805C6.3182 24.3427 6.3076 24.5049 6.29667 24.672C9.49564 25.2451 12.6835 25.2204 15.9217 25.197C15.9794 24.3308 16.0372 23.4645 16.0967 22.572C15.7078 22.5614 15.3189 22.5508 14.9182 22.5399C14.3922 22.5253 13.8663 22.5104 13.3404 22.4955C13.1375 22.4898 13.1375 22.4898 12.9304 22.484C11.1538 22.4335 9.3789 22.3738 7.6049 22.26C7.28581 22.241 6.96622 22.2304 6.64667 22.222Z" fill="white"/>
<path d="M20.9966 2.62208C22.1881 3.68475 22.2806 5.45178 22.3768 6.94923C22.3866 7.14616 22.3866 7.14616 22.3966 7.34708C23.0229 7.34708 23.1694 7.20638 23.6653 6.84395C24.6839 6.14901 25.6806 5.76698 26.924 5.96895C27.7558 6.31082 28.0158 7.08434 28.3466 7.87208C30.1642 12.4339 31.0412 17.3722 31.9997 22.1674C32.0419 22.3783 32.0841 22.5892 32.1275 22.8065C32.2493 23.4179 32.3702 24.0296 32.4905 24.6413C32.5443 24.9129 32.5443 24.9129 32.5992 25.1899C32.7019 25.7167 32.7997 26.2442 32.8966 26.7721C32.9365 26.9753 32.9765 27.1784 33.0176 27.3878C33.0728 27.692 33.0728 27.692 33.1291 28.0024C33.1813 28.2791 33.1813 28.2791 33.2345 28.5613C33.2466 29.0471 33.2466 29.0471 33.0188 29.421C32.3953 30.0121 31.6483 30.3574 30.7966 30.4471C29.7 30.0882 28.902 29.3597 28.095 28.5658C27.4888 27.8629 27.4888 27.8629 26.7716 27.4721C26.7807 27.6721 26.7807 27.6721 26.79 27.8761C26.8231 29.1383 26.8494 30.4056 26.0148 31.4321C25.4395 31.9622 24.916 32.1421 24.1466 32.1971C24.2032 32.0077 24.2599 31.8184 24.3183 31.6233C24.5535 30.6764 24.5499 29.7489 24.5492 28.7777C24.5502 28.5841 24.5512 28.3904 24.5522 28.1909C24.5543 27.5648 24.5532 26.9388 24.5513 26.3127C24.5508 25.9928 24.5508 25.9928 24.5503 25.6665C24.8068 16.7001 24.8068 16.7001 21.4149 8.79151C20.5926 8.00143 19.7364 7.58241 18.6751 7.1796C18.1966 6.99708 18.1966 6.99708 17.4966 6.64708C18.3628 6.64708 19.2291 6.64708 20.1216 6.64708C20.0711 6.39803 20.0205 6.14898 19.9685 5.89239C19.94 5.7523 19.9116 5.61221 19.8823 5.46788C19.7812 5.0278 19.7812 5.0278 19.4216 4.54708C18.83 4.42142 18.2665 4.44855 17.6716 4.54708C16.8804 5.10256 16.5988 5.76862 16.2716 6.64708C15.5208 6.64708 14.7701 6.64708 13.9966 6.64708C14.2734 4.93068 14.968 3.5892 16.3051 2.45733C17.6369 1.67782 19.6889 1.94489 20.9966 2.62208ZM24.8247 9.00958C24.6587 9.15395 24.4926 9.29833 24.3216 9.44708C24.3746 9.59687 24.4276 9.74666 24.4822 9.90098C25.0421 11.5826 25.379 13.2875 25.656 15.0361C25.675 15.154 25.6941 15.2719 25.7137 15.3933C25.9392 16.8082 26.0966 18.2076 26.157 19.6395C26.1264 22.3707 26.1264 22.3707 27.1489 24.7616C27.7299 25.2767 28.3332 25.5974 29.0466 25.8971C29.2806 26.0123 29.5141 26.1287 29.7466 26.2471C29.1091 20.1925 27.8425 14.2838 25.7216 8.57208C25.2685 8.57208 25.1615 8.71672 24.8247 9.00958Z" fill="white"/>
</svg>
