<svg width="21" height="22" viewBox="0 0 21 22" fill="none" xmlns="http://www.w3.org/2000/svg">
<path d="M2.625 8.9219C2.625 6.96172 2.625 5.98162 3.00648 5.23293C3.34203 4.57437 3.87747 4.03893 4.53603 3.70338C5.28472 3.3219 6.26482 3.3219 8.225 3.3219H12.775C14.7352 3.3219 15.7153 3.3219 16.464 3.70338C17.1225 4.03893 17.658 4.57437 17.9935 5.23293C18.375 5.98162 18.375 6.96172 18.375 8.9219V13.4719C18.375 15.4321 18.375 16.4122 17.9935 17.1609C17.658 17.8194 17.1225 18.3549 16.464 18.6904C15.7153 19.0719 14.7352 19.0719 12.775 19.0719H8.225C6.26482 19.0719 5.28472 19.0719 4.53603 18.6904C3.87747 18.3549 3.34203 17.8194 3.00648 17.1609C2.625 16.4122 2.625 15.4321 2.625 13.4719V8.9219Z" fill="#FDBE22"/>
<path fill-rule="evenodd" clip-rule="evenodd" d="M11.375 7.69513C11.375 7.21188 10.9832 6.82013 10.5 6.82013C10.0168 6.82013 9.625 7.21188 9.625 7.69513V11.1951C9.625 11.6784 10.0168 12.0701 10.5 12.0701C10.9832 12.0701 11.375 11.6784 11.375 11.1951V7.69513ZM10.5 13.8201C10.0168 13.8201 9.625 14.2119 9.625 14.6951C9.625 15.1784 10.0168 15.5701 10.5 15.5701C10.9832 15.5701 11.375 15.1784 11.375 14.6951C11.375 14.2119 10.9832 13.8201 10.5 13.8201Z" fill="#1E2125"/>
</svg>
