<svg width="14" height="20" viewBox="0 0 14 20" fill="none" xmlns="http://www.w3.org/2000/svg">
<path d="M4.41782 7.3791L10.0752 9.31008C12.1175 10.0227 13.1034 11.425 13.1034 13.5858C13.1034 16.0685 11.0846 18.1144 8.61978 18.1144H8.40851V18.2294C8.40851 19.1719 7.61037 19.9535 6.64791 19.9535C5.68545 19.9535 4.88731 19.1719 4.88731 18.2294V18.0914C2.28163 17.9765 0.192383 15.8386 0.192383 13.172C0.192383 12.2295 0.990521 11.448 1.95298 11.448C2.91544 11.448 3.71358 12.2295 3.71358 13.172C3.71358 13.9996 4.32392 14.6663 5.07511 14.6663H8.59631C9.13623 14.6663 9.55877 14.1835 9.55877 13.5858C9.55877 12.7832 9.41862 12.7355 8.88201 12.5527L8.878 12.5514L3.22061 10.6204C1.20179 9.93075 0.192383 8.52849 0.192383 6.34465C0.192383 3.86196 2.2112 1.81604 4.67604 1.81604H4.88731V1.72409C4.88731 0.781587 5.68545 0 6.64791 0C7.61037 0 8.40851 0.781587 8.40851 1.72409V1.86202C11.0142 1.97696 13.1034 4.11483 13.1034 6.78142C13.1034 7.72392 12.3053 8.5055 11.3428 8.5055C10.3804 8.5055 9.58224 7.72392 9.58224 6.78142C9.58224 5.95385 8.9719 5.28721 8.22071 5.28721H4.69952C4.1596 5.28721 3.73706 5.76995 3.73706 6.36764C3.71358 7.14922 3.85443 7.1952 4.41782 7.3791Z" fill="#1CFF60"/>
</svg>
