<svg width="93" height="94" viewBox="0 0 93 94" fill="none" xmlns="http://www.w3.org/2000/svg">
<path d="M74.0465 43.6625C74.4808 43.1455 74.7421 42.4841 74.7421 41.764C74.7421 40.756 74.229 39.8645 73.4462 39.3216C73.7281 38.8687 73.8936 38.3391 73.8936 37.771C73.8936 36.6073 73.2101 35.5991 72.2167 35.1041C72.3699 34.7477 72.4551 34.3565 72.4551 33.9462C72.4551 32.6288 71.5801 31.5097 70.3701 31.1105C70.433 30.8715 70.4702 30.6223 70.4702 30.3646C70.4702 28.887 69.3696 27.6591 67.9295 27.417C67.9389 27.3222 67.9444 27.2264 67.9444 27.1291C67.9444 25.4918 66.5939 24.159 64.9263 24.1374C64.8302 22.571 63.5009 21.3244 61.8766 21.3244C61.2155 21.3244 60.6047 21.5328 60.104 21.8831C56.4204 19.5826 52.2615 18.2925 47.9766 18.122V17.956C47.9766 17.4279 47.5394 17 46.9999 17C46.4604 17 46.0232 17.4279 46.0232 17.956V18.122C41.7389 18.2925 37.58 19.5826 33.896 21.8833C33.3953 21.533 32.7843 21.3244 32.1232 21.3244C30.499 21.3244 29.1698 22.571 29.0737 24.1374C27.4061 24.159 26.0555 25.4918 26.0555 27.1291C26.0555 27.2264 26.0609 27.3222 26.0703 27.417C24.6302 27.6593 23.5296 28.887 23.5296 30.3646C23.5296 30.6225 23.5666 30.8715 23.6297 31.1105C22.4197 31.5097 21.5446 32.6288 21.5446 33.9462C21.5446 34.3563 21.6297 34.7477 21.7831 35.1041C20.7897 35.5993 20.1064 36.6075 20.1064 37.771C20.1064 38.3392 20.2719 38.8687 20.5536 39.3216C19.771 39.8645 19.2577 40.756 19.2577 41.764C19.2577 42.4841 19.519 43.1455 19.9533 43.6625C19.3674 44.2082 19 44.9764 19 45.8286C19 46.6892 19.3751 47.464 19.9713 48.0106C19.546 48.5247 19.2901 49.1783 19.2901 49.8897C19.2901 50.8549 19.7609 51.7123 20.4875 52.2603C19.9882 52.8841 19.6878 53.6671 19.6878 54.5189C19.6878 56.0879 20.7003 57.4267 22.1175 57.9519C21.7503 58.5848 21.5395 59.3154 21.5395 60.0936C21.5395 62.4463 23.4572 64.3675 25.8427 64.4421C25.7011 64.8977 25.6243 65.3805 25.6243 65.8807C25.6243 68.611 27.8936 70.8324 30.683 70.8324C31.2729 70.8324 31.839 70.7322 32.3657 70.5498C32.3795 73.5135 34.8465 75.9207 37.8777 75.9207C39.3391 75.9207 40.6688 75.3601 41.6565 74.4484C42.5029 76.5268 44.5784 78 46.9999 78C49.4214 78 51.4967 76.5266 52.3434 74.4482C53.331 75.3599 54.6603 75.9207 56.1219 75.9207C59.1531 75.9207 61.6201 73.5135 61.6341 70.5496C62.1608 70.7322 62.7271 70.8324 63.3168 70.8324C66.1064 70.8324 68.3759 68.611 68.3759 65.8807C68.3759 65.3805 68.2991 64.8975 68.1575 64.4421C70.543 64.3673 72.4605 62.4461 72.4605 60.0936C72.4605 59.3154 72.2497 58.5846 71.8825 57.9519C73.2999 57.4267 74.3122 56.0879 74.3122 54.5189C74.3122 53.6671 74.0117 52.884 73.5126 52.2603C74.2391 51.7125 74.7101 50.8549 74.7101 49.8897C74.7101 49.1781 74.454 48.5247 74.0289 48.0104C74.6249 47.464 75 46.6892 75 45.8286C74.9998 44.9764 74.6324 44.2084 74.0465 43.6625ZM72.7885 41.7642C72.7885 42.3608 72.2929 42.8461 71.6834 42.8461C71.074 42.8461 70.5782 42.3608 70.5782 41.7642C70.5782 41.1677 71.074 40.6824 71.6834 40.6824C72.2929 40.6822 72.7885 41.1677 72.7885 41.7642ZM71.9399 37.771C71.9399 38.3677 71.4439 38.8532 70.8345 38.8532C70.225 38.8532 69.7294 38.3677 69.7294 37.771C69.7294 37.1746 70.225 36.6896 70.8345 36.6896C71.4441 36.6896 71.9399 37.1746 71.9399 37.771ZM69.3965 32.8644C70.0056 32.8644 70.5014 33.3496 70.5014 33.9462C70.5014 34.5427 70.0056 35.028 69.3965 35.028C68.7871 35.028 68.2911 34.5427 68.2911 33.9462C68.2911 33.3496 68.7871 32.8644 69.3965 32.8644ZM67.4113 29.2826C68.0207 29.2826 68.5165 29.7679 68.5165 30.3644C68.5165 30.9608 68.0207 31.4459 67.4113 31.4459C66.8016 31.4459 66.3058 30.9608 66.3058 30.3644C66.3058 29.7679 66.8016 29.2826 67.4113 29.2826ZM64.8854 26.0471C65.4949 26.0471 65.9907 26.5324 65.9907 27.1289C65.9907 27.7255 65.4949 28.2107 64.8854 28.2107C64.276 28.2107 63.7802 27.7255 63.7802 27.1289C63.7802 26.5324 64.276 26.0471 64.8854 26.0471ZM61.8764 23.2362C62.486 23.2362 62.982 23.7213 62.982 24.3177C62.982 24.9142 62.486 25.3995 61.8764 25.3995C61.2671 25.3995 60.7715 24.9142 60.7715 24.3177C60.7715 23.7213 61.2671 23.2362 61.8764 23.2362ZM32.1229 23.2362C32.7321 23.2362 33.2279 23.7213 33.2279 24.3177C33.2279 24.9142 32.7321 25.3995 32.1229 25.3995C31.5132 25.3995 31.0174 24.9142 31.0174 24.3177C31.0174 23.7213 31.5132 23.2362 32.1229 23.2362ZM29.114 26.0471C29.7234 26.0471 30.219 26.5324 30.219 27.1289C30.219 27.7255 29.7234 28.2107 29.114 28.2107C28.5045 28.2107 28.0085 27.7255 28.0085 27.1289C28.0085 26.5324 28.5045 26.0471 29.114 26.0471ZM26.5882 29.2826C27.1976 29.2826 27.6932 29.7679 27.6932 30.3644C27.6932 30.9608 27.1976 31.4459 26.5882 31.4459C25.9787 31.4459 25.4827 30.9608 25.4827 30.3644C25.4827 29.7679 25.9787 29.2826 26.5882 29.2826ZM24.6029 32.8644C25.2123 32.8644 25.7081 33.3496 25.7081 33.9462C25.7081 34.5427 25.2123 35.028 24.6029 35.028C23.9934 35.028 23.4976 34.5427 23.4976 33.9462C23.4976 33.3496 23.9934 32.8644 24.6029 32.8644ZM23.1647 36.6896C23.7742 36.6896 24.27 37.1746 24.27 37.771C24.27 38.3677 23.7742 38.8532 23.1647 38.8532C22.5553 38.8532 22.0595 38.3677 22.0595 37.771C22.0595 37.1746 22.5553 36.6896 23.1647 36.6896ZM22.316 40.6822C22.9254 40.6822 23.4212 41.1675 23.4212 41.764C23.4212 42.3606 22.9254 42.8459 22.316 42.8459C21.7065 42.8459 21.2107 42.3606 21.2107 41.764C21.2107 41.1677 21.7065 40.6822 22.316 40.6822ZM22.0583 44.7468C22.6678 44.7468 23.1636 45.2321 23.1636 45.8286C23.1636 46.4252 22.6678 46.9104 22.0583 46.9104C21.4488 46.9104 20.9531 46.4252 20.9531 45.8286C20.9531 45.2321 21.4488 44.7468 22.0583 44.7468ZM21.2429 49.8899C21.2429 49.2936 21.7387 48.8085 22.3484 48.8085C22.9577 48.8085 23.4535 49.2936 23.4535 49.8899C23.4535 50.3723 23.1294 50.7817 22.6834 50.9211C22.6428 50.9293 22.6039 50.9417 22.5637 50.9513C22.4941 50.9647 22.422 50.9721 22.3484 50.9721C21.7387 50.9721 21.2429 50.4867 21.2429 49.8899ZM21.6407 54.5191C21.6407 53.7119 22.1988 53.0318 22.9567 52.8243C23.0003 52.8157 23.0423 52.8033 23.0848 52.7927C23.1997 52.7702 23.3183 52.7579 23.4398 52.7579C24.4319 52.7579 25.2391 53.548 25.2391 54.5191C25.2391 55.191 24.8525 55.7757 24.2858 56.0724C24.2128 56.1023 24.1405 56.1334 24.0694 56.1669C23.8731 56.239 23.6615 56.2803 23.4398 56.2803C22.4478 56.2803 21.6407 55.4902 21.6407 54.5191ZM25.9857 62.5339C24.6111 62.5339 23.4925 61.4393 23.4925 60.0938C23.4925 59.1383 24.0579 58.3116 24.8769 57.9112C24.932 57.8888 24.985 57.8623 25.0387 57.8372C25.3309 57.7194 25.6505 57.6533 25.9857 57.6533C27.3606 57.6533 28.4791 58.7481 28.4791 60.0938C28.4789 61.4393 27.3606 62.5339 25.9857 62.5339ZM30.6826 68.9208C28.9702 68.9208 27.5774 67.5571 27.5774 65.8811C27.5774 64.205 28.9704 62.8413 30.6826 62.8413C32.3954 62.8413 33.7884 64.205 33.7884 65.8811C33.7884 67.5571 32.3954 68.9208 30.6826 68.9208ZM37.8775 74.0089C35.9151 74.0089 34.3183 72.446 34.3183 70.525C34.3183 68.6042 35.9151 67.0415 37.8775 67.0415C39.8401 67.0415 41.4369 68.6042 41.4369 70.525C41.4367 72.446 39.8399 74.0089 37.8775 74.0089ZM46.9997 76.0882C44.9054 76.0882 43.2018 74.4203 43.2018 72.3706C43.2018 70.321 44.9056 68.6535 46.9997 68.6535C49.0938 68.6535 50.7974 70.3212 50.7974 72.3706C50.7974 74.4203 49.0938 76.0882 46.9997 76.0882ZM56.1217 74.0089C54.1591 74.0089 52.5625 72.446 52.5625 70.525C52.5625 68.6042 54.1591 67.0415 56.1217 67.0415C58.0843 67.0415 59.6811 68.6042 59.6811 70.525C59.6811 72.446 58.0843 74.0089 56.1217 74.0089ZM58.2697 65.5562C57.6093 65.2817 56.8832 65.1297 56.1217 65.1297C53.8573 65.1297 51.9081 66.4734 51.0609 68.3885C50.0197 67.3715 48.5834 66.7415 46.9997 66.7415C45.416 66.7415 43.9797 67.3713 42.9385 68.3885C42.0913 66.4732 40.1419 65.1297 37.8775 65.1297C37.1161 65.1297 36.3904 65.2817 35.7301 65.5558C35.5582 62.9765 33.3609 60.9291 30.6828 60.9291C30.5699 60.9291 30.4583 60.9339 30.3472 60.9412C30.4026 60.6668 30.4325 60.3836 30.4325 60.0936C30.4325 58.0131 28.9331 56.2699 26.9368 55.8424C27.0998 55.4313 27.1929 54.9858 27.1929 54.5189C27.1929 53.0711 26.3303 51.8197 25.0838 51.2218C25.2889 50.8199 25.4071 50.3687 25.4071 49.8897C25.4071 49.0291 25.032 48.2546 24.436 47.7079C24.8611 47.1936 25.117 46.5403 25.117 45.8286C25.117 45.1085 24.8556 44.4472 24.4214 43.9302C25.0072 43.3845 25.3747 42.6162 25.3747 41.764C25.3747 41.196 25.2092 40.6666 24.9275 40.2136C25.7101 39.6708 26.2235 38.7792 26.2235 37.771C26.2235 37.3609 26.1383 36.9699 25.9851 36.6135C26.9783 36.1182 27.6616 35.1098 27.6616 33.9462C27.6616 33.6881 27.6247 33.4389 27.5614 33.1999C28.7715 32.8009 29.6467 31.682 29.6467 30.3646C29.6467 30.2673 29.6412 30.1715 29.6318 30.0767C31.0125 29.8447 32.0775 28.7056 32.1631 27.3096C33.8308 27.2884 35.1814 25.9553 35.1814 24.3179C35.1814 24.0095 35.1333 23.7118 35.0444 23.4314C38.3913 21.3648 42.1559 20.2028 46.0308 20.0363C46.072 20.5271 46.4873 20.9143 46.9995 20.9143C47.5117 20.9143 47.927 20.5273 47.9682 20.0363C51.8437 20.2028 55.6085 21.3647 58.9548 23.4318C58.8659 23.7119 58.8179 24.0095 58.8179 24.3179C58.8179 25.9553 60.1683 27.2884 61.8359 27.3096C61.9215 28.7056 62.9865 29.8445 64.367 30.0767C64.3576 30.1715 64.3522 30.2673 64.3522 30.3646C64.3522 31.682 65.2271 32.8007 66.4377 33.1999C66.3746 33.4389 66.3374 33.6883 66.3374 33.9462C66.3374 35.1098 67.0208 36.1182 68.0141 36.6135C67.8609 36.9697 67.7758 37.3607 67.7758 37.771C67.7758 38.7792 68.2889 39.671 69.0717 40.2138C68.79 40.6665 68.6245 41.1964 68.6245 41.764C68.6245 42.6162 68.992 43.3845 69.5778 43.9302C69.1436 44.4472 68.8824 45.1085 68.8824 45.8286C68.8824 46.5403 69.1383 47.1938 69.5634 47.7079C68.9674 48.2546 68.5923 49.0291 68.5923 49.8897C68.5923 50.3687 68.7105 50.8199 68.9156 51.2218C67.6689 51.8199 66.8063 53.0711 66.8063 54.5189C66.8063 54.9858 66.8995 55.4311 67.0626 55.8424C65.0661 56.2699 63.5667 58.0133 63.5667 60.0936C63.5667 60.3836 63.5964 60.6668 63.652 60.9412C63.5411 60.9339 63.4294 60.9291 63.3164 60.9291C60.6389 60.9291 58.4414 62.9767 58.2697 65.5562ZM63.3166 68.9208C61.6043 68.9208 60.2111 67.5571 60.2111 65.8811C60.2111 64.205 61.6043 62.8413 63.3166 62.8413C65.0292 62.8413 66.4222 64.205 66.4222 65.8811C66.4222 67.5571 65.0292 68.9208 63.3166 68.9208ZM68.0137 62.5339C66.6389 62.5339 65.5203 61.4393 65.5203 60.0938C65.5203 58.7481 66.6389 57.6533 68.0137 57.6533C68.3493 57.6533 68.6689 57.7194 68.9613 57.8374C69.0148 57.8623 69.0674 57.8887 69.1221 57.911C69.9416 58.3114 70.5071 59.1382 70.5071 60.0938C70.5071 61.4393 69.3885 62.5339 68.0137 62.5339ZM70.5596 56.2803C70.3375 56.2803 70.1258 56.2388 69.9291 56.1665C69.8585 56.1332 69.7866 56.1023 69.7136 56.0728C69.1467 55.7759 68.7597 55.1912 68.7597 54.5191C68.7597 53.548 69.5671 52.7579 70.5594 52.7579C70.6807 52.7579 70.7993 52.7702 70.914 52.7927C70.957 52.8033 70.999 52.8157 71.0425 52.8245C71.8003 53.0319 72.3582 53.7122 72.3582 54.5191C72.3586 55.4902 71.5516 56.2803 70.5596 56.2803ZM71.651 50.9721C71.5774 50.9721 71.5057 50.9647 71.4359 50.9513C71.3955 50.9417 71.3564 50.9291 71.3154 50.9209C70.8696 50.7815 70.5458 50.3723 70.5458 49.8899C70.5458 49.2936 71.0413 48.8085 71.6508 48.8085C72.2603 48.8085 72.7563 49.2936 72.7563 49.8899C72.7565 50.4867 72.2605 50.9721 71.651 50.9721ZM71.9409 46.9106C71.3314 46.9106 70.8358 46.4254 70.8358 45.8288C70.8358 45.2323 71.3314 44.747 71.9409 44.747C72.5504 44.747 73.0462 45.2323 73.0462 45.8288C73.0464 46.4252 72.5504 46.9106 71.9409 46.9106Z" fill="#404144"/>
</svg>
