<svg width="93" height="94" viewBox="0 0 93 94" fill="none" xmlns="http://www.w3.org/2000/svg">
<path d="M32.9075 34.1603C35.9458 35.7261 38.8139 37.6023 41.4657 39.759C42.3938 40.5028 43.548 40.9078 44.7375 40.9069C45.4069 40.9094 46.0702 40.7796 46.6893 40.525C47.3084 40.2704 47.8711 39.8959 48.345 39.4232C48.8652 38.8876 49.2647 38.2468 49.5167 37.5439C49.7686 36.8411 49.8672 36.0924 49.8058 35.3483C49.7444 34.6041 49.5245 33.8818 49.1607 33.2297C48.797 32.5776 48.2978 32.011 47.6969 31.5678C40.5286 26.1174 34.2818 23.5719 32.0407 25.8129C31.5214 26.3013 31.1307 26.9103 30.9032 27.586C30.6757 28.2616 30.6185 28.9829 30.7367 29.686C30.971 30.9853 32.1001 32.497 32.9075 34.1603Z" fill="white"/>
<path d="M54.241 52.534C56.3977 55.1858 58.2739 58.0539 59.8397 61.0922C61.503 61.8996 63.0147 63.0287 64.314 63.263C65.0171 63.3811 65.7384 63.3239 66.414 63.0965C67.0897 62.869 67.6987 62.4783 68.1871 61.959C70.4281 59.7179 67.8826 53.471 62.4322 46.3028C61.9365 45.642 61.2941 45.1055 60.5555 44.7355C59.817 44.3655 59.0025 44.1723 58.1765 44.171C57.5082 44.1679 56.8459 44.2974 56.2279 44.5521C55.61 44.8068 55.0488 45.1815 54.5768 45.6547C53.6866 46.5605 53.1606 47.7619 53.0987 49.0304C53.0367 50.2989 53.4433 51.5458 54.241 52.534Z" fill="white"/>
<path fill-rule="evenodd" clip-rule="evenodd" d="M24.8552 32.9997L32.3335 25.5214C30.9006 26.9551 31.3239 30.0082 33.2003 33.8665C35.3625 38.322 39.4448 43.852 44.7975 49.2025C50.1503 54.5529 55.678 58.6376 60.1336 60.7997C63.9918 62.6761 67.0449 63.0994 68.4786 61.6665L61.0003 69.1448C57.9027 72.2416 47.3025 66.664 37.3193 56.6807C27.336 46.6975 21.7584 36.0974 24.8552 32.9997ZM54.9621 63.0021H56.4863C56.865 63.0021 57.1719 63.3091 57.1719 63.6877V65.212C57.1719 65.5906 56.865 65.8975 56.4863 65.8975H54.9621C54.5834 65.8975 54.2765 65.5906 54.2765 65.212V63.6877C54.2765 63.3091 54.5834 63.0021 54.9621 63.0021ZM49.0084 58.0163H47.4842C47.1055 58.0163 46.7986 58.3233 46.7986 58.7019V60.2261C46.7986 60.6048 47.1055 60.9117 47.4842 60.9117H49.0084C49.387 60.9117 49.694 60.6048 49.694 60.2261V58.7019C49.694 58.3233 49.387 58.0163 49.0084 58.0163ZM40.0057 51.7843H41.5299C41.9086 51.7843 42.2155 52.0913 42.2155 52.4699V53.9941C42.2155 54.3728 41.9086 54.6797 41.5299 54.6797H40.0057C39.627 54.6797 39.3201 54.3728 39.3201 53.9941V52.4699C39.3201 52.0913 39.627 51.7843 40.0057 51.7843ZM35.2991 44.3059H33.7749C33.3963 44.3059 33.0893 44.6129 33.0893 44.9915V46.5157C33.0893 46.8944 33.3963 47.2013 33.7749 47.2013H35.2991C35.6778 47.2013 35.9847 46.8944 35.9847 46.5157V44.9915C35.9847 44.6129 35.6778 44.3059 35.2991 44.3059ZM28.7891 36.8286H30.3133C30.692 36.8286 30.9989 37.1355 30.9989 37.5142V39.0384C30.9989 39.417 30.692 39.724 30.3133 39.724H28.7891C28.4104 39.724 28.1035 39.417 28.1035 39.0384V37.5142C28.1035 37.1355 28.4104 36.8286 28.7891 36.8286Z" fill="white"/>
</svg>
