<svg width="93" height="94" viewBox="0 0 93 94" fill="none" xmlns="http://www.w3.org/2000/svg">
<g clip-path="url(#clip0_3643_12406)">
<path d="M28.4805 28.5736C29.6371 25.1299 33.075 24.1259 36.3564 24.8587C37.976 25.4959 38.9408 26.7221 39.7998 28.1908C40.3108 29.9641 40.1904 31.5788 39.4394 33.264C38.9496 34.1017 38.3262 34.7937 37.5469 35.3734H37.0937C37.2433 35.5837 37.3927 35.7943 37.5469 36.0111C38.1777 37.1178 38.158 38.2126 38 39.4535C37.8239 40.0361 37.6085 40.5 37.3203 41.0404C37.4327 41.1449 37.5453 41.2491 37.6611 41.3568C40.8423 44.4112 42.6402 48.4273 43.8935 52.5999C43.9655 52.839 43.9656 52.8394 44.0391 53.0833C45.0472 56.5761 45.6052 60.852 44.0166 64.2386C42.3855 67.0424 40.1145 69.0183 37.043 70.0794C36.0344 70.3161 35.1081 70.3581 34.0762 70.3509C33.8854 70.3496 33.6946 70.3483 33.498 70.347C30.5243 70.2889 28.1511 69.1258 25.96 67.1165C23.7371 64.7044 22.9558 61.8911 22.9922 58.6771C23.3441 52.3237 25.9584 45.3593 30.7471 41.0404L30.5205 40.5306C30.1218 39.0354 29.951 37.3824 30.7471 35.9964L31.2002 35.3734C31.0652 35.3141 30.93 35.2548 30.791 35.1937C30.2655 34.9047 29.9707 34.6247 29.5849 34.1693C29.416 33.9744 29.4156 33.9746 29.2432 33.7757C28.1902 32.2745 28.2287 30.3347 28.4805 28.5736ZM35.0537 36.9603C34.2979 36.7191 33.8976 36.6397 33.1699 36.974C32.6482 37.573 32.5766 37.9849 32.5605 38.7738C32.8012 39.2975 32.8013 39.2977 33.2402 39.68C33.996 39.9212 34.3963 40.0006 35.124 39.6663C35.6457 39.0673 35.7173 38.6554 35.7334 37.8665C35.4927 37.3427 35.4927 37.3426 35.0537 36.9603ZM35.0537 26.9867C33.5694 26.7553 32.7528 27.1518 31.6533 28.1204C30.8897 29.0286 30.6048 29.6882 30.6758 30.8519C30.8466 31.9172 31.31 32.6221 32.1211 33.305C33.1253 33.9624 34.1183 33.992 35.2803 33.7865C36.3769 33.2584 37.0188 32.6166 37.5469 31.5199C37.6929 30.4971 37.6673 29.5915 37.3203 28.6156C36.6572 27.8903 35.9596 27.3745 35.0537 26.9867Z" fill="#404144"/>
<path d="M55.119 26.1656C56.9223 24.5581 59.1511 24.2641 61.4618 24.8687C63.081 25.6053 64.3013 26.9455 64.9735 28.5738C65.2501 30.6484 65.1125 32.5296 63.8397 34.2398C63.4061 34.6866 62.9941 35.0151 62.4803 35.3736C62.7753 36.298 62.7751 36.2985 63.16 37.1871C63.3438 38.8083 63.0803 39.8725 62.2538 41.2671C62.3883 41.327 62.5234 41.3862 62.662 41.4478C66.0439 43.2921 67.8701 48.9885 68.8983 52.4322C69.1257 53.2381 69.3192 54.0506 69.5067 54.8667C69.5575 55.0546 69.6086 55.2425 69.661 55.4361C70.4932 58.7935 70.168 62.3401 68.4032 65.3306C66.6025 67.93 64.2337 69.5658 61.12 70.2798C58.5497 70.5498 56.14 70.4757 53.8671 69.147C53.6819 69.0407 53.4963 68.9343 53.3055 68.8248C50.8864 67.3199 49.2054 65.2556 48.3661 62.521C47.1913 56.4907 49.4046 49.725 52.663 44.6666C53.6288 43.2631 54.6993 42.01 55.9071 40.813C55.7949 40.6261 55.6819 40.4393 55.5663 40.2466C55.1233 39.2129 54.9951 38.2638 55.3885 37.2037C55.4519 37.0672 55.5156 36.9302 55.5809 36.7896C55.939 36.1142 55.9396 36.1141 55.9071 35.5718C55.6838 35.0988 55.6831 35.0982 55.1698 34.6646C53.9436 33.3825 53.3458 32.0527 53.2577 30.273C53.3277 28.5775 53.9689 27.3894 55.119 26.1656ZM59.1932 36.6197C58.6267 36.733 58.6265 36.7338 58.1024 37.1021C57.6137 37.79 57.6139 38.1718 57.7196 38.9996C58.1729 39.6795 58.1735 39.6797 58.9383 39.8921C59.76 39.9063 59.7599 39.9064 60.3124 39.5523C60.7674 38.8424 60.805 38.4693 60.6669 37.6402C60.2173 37.0075 59.9571 36.7725 59.1932 36.6197ZM60.6952 27.2417C59.3641 26.7626 58.3435 26.8492 57.1708 27.6099C56.3957 28.2239 55.961 28.819 55.8368 29.813C55.8064 31.0285 55.8979 31.8393 56.6639 32.813C57.4737 33.597 58.0694 33.8879 59.2079 33.9283C60.3085 33.8604 60.9815 33.6585 61.7997 32.8804C62.689 31.7792 62.8249 30.8726 62.7069 29.48C62.2244 28.515 61.5877 27.8239 60.6952 27.2417Z" fill="#404144"/>
</g>
<defs>
<clipPath id="clip0_3643_12406">
<rect width="51" height="51" fill="white" transform="translate(21 22)"/>
</clipPath>
</defs>
</svg>
