<svg width="93" height="94" viewBox="0 0 93 94" fill="none" xmlns="http://www.w3.org/2000/svg">
<path d="M67.9829 46.3044C67.3804 46.1653 66.7714 46.455 66.5011 47.0021C65.1325 49.7612 62.1554 51.543 59.0502 51.543H51.7734C50.8298 51.543 49.8989 51.7529 49.0118 52.1623C48.0012 52.6232 47.145 53.3261 46.5013 54.1849C45.8602 53.3313 45.0143 52.6361 44.023 52.1919C43.1938 51.7618 42.2527 51.543 41.2266 51.543H33.9498C30.8444 51.543 27.8675 49.7612 26.499 47.0021C26.2286 46.4549 25.6132 46.1691 25.0172 46.3044C24.421 46.4434 24 46.9751 24 47.5879V58.1348C24 64.6776 29.4103 70 35.9531 70C41.7016 70 44.9421 67.4431 46.5 65.6652C48.0579 67.4431 51.2984 70 57.0469 70C63.5897 70 69 64.6776 69 58.1348V47.5879C69 46.9751 68.579 46.4434 67.9829 46.3044ZM35.9531 64.7266C32.3186 64.7266 29.3613 61.7693 29.3613 58.1348C29.3613 57.4061 29.951 56.8164 30.6797 56.8164H41.2266C41.9553 56.8164 42.5449 57.4061 42.5449 58.1348C42.5449 61.7693 39.5877 64.7266 35.9531 64.7266ZM57.0469 64.7266C53.4123 64.7266 50.4551 61.7693 50.4551 58.1348C50.4551 57.4061 51.0447 56.8164 51.7734 56.8164H62.3203C63.049 56.8164 63.6387 57.4061 63.6387 58.1348C63.6387 61.7693 60.6814 64.7266 57.0469 64.7266Z" fill="white"/>
<path d="M67.6806 34.7559C63.0133 34.7559 58.5675 36.4158 55.1097 39.2354L55.0831 39.2571C55.2479 41.7321 55.0209 44.8396 54.3809 48.9062H57.0904L57.7395 47.9395C59.1673 45.8132 61.2645 44.1593 63.7457 43.3072C66.8357 42.2566 68.9989 39.3496 68.9989 36.0742C68.9989 35.3455 68.4093 34.7559 67.6806 34.7559Z" fill="white"/>
<path d="M45.1676 49.8165C45.6308 50.029 46.0755 50.2822 46.4964 50.5721C46.9424 50.2621 47.4162 49.9915 47.9114 49.7653C49.1296 49.2041 50.4073 48.9158 51.7101 48.907C52.4439 44.3686 52.6571 41.043 52.3795 38.6267C52.0244 35.5347 50.8965 34.2305 49.9013 33.08C48.78 31.7838 47.8117 30.6642 47.8117 26.3184C47.8117 25.5903 47.2214 25 46.4933 25C45.7652 25 45.1749 25.5903 45.1749 26.3184C45.1749 30.6527 44.2076 31.7505 43.0876 33.0219C42.0854 34.1594 40.9494 35.4488 40.5932 38.5499C40.3148 40.9741 40.532 44.3242 41.2754 48.907C42.6812 48.9141 43.9902 49.2197 45.1676 49.8165Z" fill="white"/>
<path d="M25.3184 34.7559C29.9856 34.7559 34.4314 36.4158 37.8893 39.2354L37.9158 39.2571C37.751 41.7321 37.978 44.8396 38.6181 48.9062H35.9086L35.2594 47.9395C33.8316 45.8132 31.7345 44.1593 29.2532 43.3072C26.1633 42.2566 24 39.3496 24 36.0742C24 35.3455 24.5897 34.7559 25.3184 34.7559Z" fill="white"/>
</svg>
