<svg width="93" height="94" viewBox="0 0 93 94" fill="none" xmlns="http://www.w3.org/2000/svg">
<path d="M60.8174 56.5127C62.3205 55.043 62.321 55.0426 63.083 55.1426C63.7336 55.3755 64.0735 55.6623 64.5723 56.1387C64.7495 56.3064 64.9268 56.4746 65.1094 56.6475C65.2981 56.8302 65.4872 57.0129 65.6816 57.2012C65.8781 57.389 66.0749 57.577 66.2773 57.7705C67.7363 59.1714 69.1791 60.5904 70.6133 62.0166C70.7997 62.2018 70.9857 62.3874 71.1777 62.5781C71.6812 63.0833 72.1789 63.593 72.6719 64.1084C72.8145 64.2559 72.9566 64.4037 73.1035 64.5557C73.4807 64.97 73.4812 64.9696 74 65.7021C73.9107 66.5688 73.5785 67.0263 72.9883 67.6465C72.8349 67.8093 72.6815 67.9728 72.5234 68.1406C72.2765 68.3964 72.2762 68.3964 72.0244 68.6572C71.8564 68.8339 71.6887 69.0113 71.5156 69.1934C71.0181 69.7147 70.5176 70.233 70.0156 70.75C69.8817 70.8883 69.7473 71.0265 69.6094 71.1689C68.8716 71.9279 68.121 72.6723 67.3584 73.4062C67.0921 73.6659 67.0922 73.6666 66.8203 73.9316C66.3296 74.386 66.3291 74.3857 65.499 75C64.4393 74.9516 63.8546 74.2863 63.1084 73.5889C62.9758 73.465 62.8436 73.3405 62.707 73.2129C61.2837 71.8689 59.8962 70.4864 58.5088 69.1055C58.1716 68.7702 58.1713 68.77 57.8271 68.4277C57.1912 67.7901 56.5618 67.1461 55.9355 66.499C55.7431 66.3048 55.5508 66.1103 55.3525 65.9102C55.0933 65.6362 55.0926 65.636 54.8281 65.3564C54.6758 65.1982 54.5232 65.0399 54.3662 64.877C54.076 64.3743 54.0766 64.3739 54.0566 63.7617C54.4829 62.6938 55.2182 62.0333 56.0342 61.2402C56.2035 61.0717 56.3734 60.9031 56.5479 60.7295C56.7246 60.5541 56.9017 60.3789 57.0791 60.2041L57.2637 60.3887C58.0766 59.5758 58.8663 58.787 59.6553 57.998L59.4004 57.9131C59.7061 57.6106 60.0124 57.308 60.3184 57.0059C60.4831 56.8431 60.6477 56.6804 60.8174 56.5127ZM39.2002 27.9795C39.9106 27.881 39.911 27.8809 40.7939 27.9795C41.4695 28.6675 41.4691 28.6683 41.8105 29.1006C42.7655 30.3092 43.6197 31.2128 45.1982 31.4102C46.282 31.4695 47.3663 31.4503 48.4512 31.4307C51.8974 31.4492 55.6569 33.5685 58.084 35.9229C59.5712 37.5558 60.5852 39.3068 61.4814 41.3125C61.5607 41.4891 61.64 41.6657 61.7217 41.8477C62.358 43.3407 62.6062 44.7351 62.5488 46.3623C62.4449 48.8566 62.4453 48.8573 63.5693 50.9932C63.9984 51.4208 64.4364 51.8082 64.9102 52.1855C66.014 53.0685 66.0139 53.069 66.1289 54.1006C66.0964 54.3348 66.0638 54.5692 66.0303 54.8105C65.4359 54.9983 65.4357 54.9984 64.7021 55.0762C64.1263 54.7141 64.1263 54.7141 63.5898 54.1963C63.4107 54.0275 63.2314 53.8585 63.0469 53.6846C62.7128 53.352 62.3792 53.0189 62.0459 52.6855C61.8574 53.0707 61.8573 53.0709 61.665 53.4639C60.8639 55.0577 60.0282 56.4557 58.96 57.7656C58.9262 57.7544 58.8922 57.7437 58.8584 57.7324C58.1358 58.455 57.4337 59.1561 56.7324 59.8574L56.8643 59.9893C55.4471 61.2485 53.6568 61.9807 51.9512 62.7803C52.3009 63.5698 52.6642 64.0577 53.3125 64.623C54.0613 65.3409 54.0613 65.3409 54.1924 66.1836C54.0762 66.7646 54.0761 66.7647 53.8105 67.0303C52.6667 66.9974 52.1227 66.9401 51.3076 66.1094C51.0015 65.7108 51.0017 65.7103 50.6895 65.3037C49.8386 64.325 49.1536 63.7736 47.8398 63.6279C46.9663 63.586 46.0941 63.5938 45.2197 63.5977C41.5306 63.6066 37.8613 61.6194 35.2617 59.1152C35.071 58.9221 34.8801 58.7283 34.6836 58.5293C34.5341 58.3856 34.3845 58.2418 34.2305 58.0938C31.9369 55.6973 30.3963 51.8975 30.4316 48.6045C30.5368 46.184 30.5363 46.1833 29.5117 44.0908C28.9996 43.5788 28.4769 43.1592 27.9014 42.7119C27.0754 41.8898 27.0124 41.346 26.9795 40.2002C27.2451 39.9346 27.2456 39.9345 27.8564 39.8525C28.7964 39.96 29.0583 40.2891 29.6865 40.9805C30.3768 41.7606 30.3771 41.7609 31.2305 42.3252C31.302 42.0934 31.3735 41.8609 31.4473 41.6221C32.0756 39.8408 33.0372 38.2355 34.2432 36.8369L34.418 37.0117L36.2773 35.1523L36.0225 35.0674C37.0692 34.1725 38.2294 33.4 39.4658 32.7617C40.0949 32.5189 40.662 32.3631 41.3252 32.2305C41.1971 32.0863 41.0685 31.9415 40.9365 31.793C40.7689 31.6032 40.6014 31.4133 40.4287 31.2178C40.2623 31.0298 40.0953 30.8412 39.9238 30.6475C39.4656 30.1052 39.4654 30.1049 38.9346 29.3086C39.0342 28.5947 39.0342 28.5938 39.2002 27.9795ZM59.4004 57.9131C59.3581 57.955 59.3158 57.9972 59.2734 58.0391C58.7253 58.584 58.1764 59.1283 57.624 59.6689C57.4421 59.847 57.2604 60.0254 57.0791 60.2041L56.8643 59.9893C56.9423 59.9199 57.02 59.85 57.0957 59.7773C57.2432 59.6242 57.3862 59.4748 57.5293 59.3262C58.0544 58.8165 58.5259 58.2979 58.96 57.7656C59.1061 57.8143 59.2523 57.8637 59.4004 57.9131ZM40.2012 39.9678C39.4905 39.916 39.3064 40.1434 38.9346 40.7305C38.9668 41.8925 39.4974 42.4852 40.2891 43.2959C40.445 43.4496 40.5967 43.5989 40.748 43.748C41.0676 44.0697 41.3878 44.391 41.708 44.7119C42.2152 45.2123 42.7217 45.7131 43.2227 46.2197C43.5499 46.5514 43.8782 46.8819 44.208 47.2109C44.3694 47.3713 44.5259 47.5279 44.6826 47.6836C45.4095 48.4209 46.0932 49.0907 47.0283 49.5615C47.9042 49.4772 47.9045 49.4773 49.0254 48.3867C49.1919 48.216 49.354 48.0504 49.5156 47.8848C49.8628 47.5394 50.2094 47.193 50.5557 46.8467C51.0961 46.2944 51.6376 45.7431 52.1865 45.1992C52.5451 44.8451 52.9025 44.4892 53.2578 44.1318C53.4306 43.957 53.5979 43.7868 53.7656 43.6172C54.353 43.0365 54.9319 42.4726 55.4043 41.793C55.5233 41.0316 55.5233 41.0315 55.4043 40.4648C55.1388 40.1994 55.1385 40.1989 54.5273 39.9893C53.8107 39.9333 53.8102 39.9339 53.25 40.3174C53.0631 40.5146 52.8816 40.706 52.7002 40.8975C52.491 41.1132 52.288 41.3228 52.085 41.5322C51.6683 41.978 51.2489 42.4213 50.8271 42.8623C50.5154 43.1863 50.5153 43.1865 50.21 43.5039C49.2454 44.5107 48.2453 45.424 47.1689 46.3096C45.69 44.807 44.204 43.3108 42.6689 41.8652C42.5281 41.7335 42.3916 41.6054 42.2549 41.4775C41.5858 40.8489 41.0581 40.3025 40.2012 39.9678ZM28.0371 20C28.8069 20.3961 29.3531 20.9111 29.9854 21.5049C30.1984 21.7049 30.1986 21.705 30.416 21.9092C32.0532 23.4623 33.6495 25.0587 35.248 26.6514C35.3847 26.7872 35.5214 26.9235 35.6621 27.0635L37.541 28.9424C38.9267 30.4079 38.9263 30.4085 38.9551 31.2539C38.5288 32.3106 37.8071 32.9779 37.0039 33.7705C36.8365 33.9389 36.6686 34.1077 36.4961 34.2812C36.26 34.5178 36.0224 34.7529 35.7852 34.9883L35.4805 34.8867L33.8867 36.4805L34.0908 36.6846C33.9962 36.7802 33.9012 36.8759 33.8066 36.9717C33.4616 37.3161 33.1163 37.6602 32.7705 38.0039C32.6097 38.1669 32.4489 38.3302 32.2832 38.498C31.6388 39.1284 31.1028 39.6047 30.2793 39.9824C29.2783 39.9066 28.875 39.3868 28.167 38.6953C28.0297 38.5632 27.8924 38.431 27.751 38.2949C27.313 37.8713 26.8802 37.4415 26.4482 37.0117C26.1691 36.7388 25.8899 36.4658 25.6104 36.1934C24.9163 35.514 24.2283 34.8288 23.543 34.1406C23.1222 33.7184 22.6997 33.2976 22.2773 32.877C22.0047 32.6041 21.7315 32.3306 21.459 32.0576C21.2179 31.8163 20.9769 31.5748 20.7285 31.3262C19.015 29.5228 19.0146 29.5225 19 28.7822C19.3948 28.015 19.9144 27.4636 20.5049 26.834C20.6315 26.6986 20.7582 26.5633 20.8887 26.4238C22.0037 25.2419 23.1448 24.0851 24.29 22.9326C24.4573 22.7641 24.6246 22.5955 24.7969 22.4219C27.2107 20.0167 27.2113 20.0163 28.0371 20ZM36.0225 35.0674C35.3845 35.6128 34.789 36.2039 34.2432 36.8369L34.0908 36.6846C34.5353 36.2351 34.9803 35.7865 35.4297 35.3418C35.5485 35.2244 35.6666 35.1059 35.7852 34.9883L36.0225 35.0674Z" fill="#404144"/>
</svg>
