<svg width="128" height="43" viewBox="0 0 128 43" fill="none" xmlns="http://www.w3.org/2000/svg">
<rect width="124.109" height="30.7575" transform="translate(3.57568 0.445312) rotate(5.09246)" fill="#2496F0"/>
<path d="M22.7321 13.1048C22.8747 12.3189 22.7379 11.6815 22.3217 11.1927C21.9062 10.6958 21.1582 10.3993 20.0777 10.303C19.3895 10.2417 18.8061 10.2703 18.3277 10.389C17.8572 10.5085 17.4815 10.6968 17.2004 10.9541C16.9273 11.2121 16.7424 11.5223 16.6456 11.8848C16.5479 12.1665 16.5283 12.4309 16.587 12.6781C16.6543 12.9181 16.7995 13.1448 17.0225 13.3583C17.2534 13.5724 17.5622 13.7734 17.9488 13.9611C18.3435 14.1495 18.8155 14.3287 19.365 14.4987L21.2473 15.1021C22.5341 15.5071 23.6007 15.9854 24.447 16.5367C25.302 17.0808 25.957 17.6957 26.4122 18.3816C26.8673 19.0675 27.1396 19.8138 27.2291 20.6204C27.3265 21.4277 27.2535 22.2924 27.01 23.2145C26.5938 24.8068 25.8436 26.1194 24.7594 27.1521C23.6751 28.1848 22.3147 28.9227 20.678 29.3657C19.0413 29.8087 17.1825 29.9375 15.1017 29.7521C12.9729 29.5624 11.1923 29.0851 9.76009 28.3202C8.33656 27.548 7.35114 26.476 6.80384 25.1043C6.26526 23.7253 6.25533 22.0264 6.77404 20.0075L13.1126 20.5724C12.9495 21.3161 12.9732 21.9555 13.1836 22.4905C13.3941 23.0255 13.7716 23.4504 14.3163 23.7652C14.861 24.0799 15.5575 24.2751 16.4059 24.3507C17.1262 24.4149 17.7502 24.3818 18.2781 24.2513C18.806 24.1209 19.2319 23.9128 19.5559 23.6271C19.8798 23.3414 20.0916 23.0013 20.1913 22.6068C20.2881 22.2444 20.2534 21.9105 20.087 21.6053C19.9206 21.3001 19.5956 21.0089 19.1121 20.7319C18.6286 20.4549 17.9552 20.1811 17.092 19.9106L14.7861 19.1727C12.7401 18.5064 11.234 17.5736 10.268 16.3743C9.30204 15.175 9.06069 13.6288 9.54398 11.7359C9.93987 10.1901 10.7061 8.87897 11.8426 7.80252C12.9879 6.71877 14.3897 5.92408 16.0481 5.41847C17.7152 4.90556 19.5252 4.73612 21.4779 4.91014C23.4627 5.08701 25.0938 5.56713 26.3711 6.3505C27.6565 7.13458 28.5377 8.15289 29.015 9.40543C29.5003 10.6587 29.5348 12.0815 29.1186 13.6739L22.7321 13.1048ZM31.911 11.5995L33.3027 6.3027L54.6711 8.20695L53.2795 13.5038L45.8846 12.8448L41.0036 31.77L34.425 31.1837L39.306 12.2585L31.911 11.5995ZM76.5983 22.9871C75.9119 25.6202 74.8238 27.7819 73.3341 29.4722C71.8444 31.1626 70.1102 32.3834 68.1314 33.1347C66.1526 33.8861 64.0828 34.1655 61.922 33.9729C59.6171 33.7675 57.6608 33.089 56.0533 31.9374C54.4458 30.7858 53.3398 29.211 52.7354 27.2131C52.131 25.2151 52.185 22.8443 52.8973 20.1006C53.5677 17.466 54.6485 15.2956 56.1396 13.5893C57.6307 11.8829 59.3744 10.6468 61.3706 9.88088C63.3668 9.11497 65.4533 8.829 67.6302 9.02299C69.9191 9.22697 71.863 9.9084 73.4618 11.0673C75.0686 12.2269 76.1695 13.8133 76.7645 15.8265C77.3675 17.8405 77.3121 20.2273 76.5983 22.9871ZM69.9441 21.6197C70.2937 20.2311 70.4153 19.0481 70.3088 18.0706C70.203 17.0851 69.8637 16.3208 69.291 15.7776C68.719 15.2265 67.9127 14.9046 66.8723 14.8119C65.6879 14.7063 64.6138 14.901 63.6501 15.396C62.6863 15.8909 61.8562 16.6518 61.1597 17.6787C60.4632 18.7057 59.9271 19.9688 59.5515 21.468C59.1685 22.8697 59.0389 24.052 59.1628 25.0149C59.2948 25.9786 59.6558 26.7247 60.246 27.2532C60.8442 27.7824 61.6555 28.0927 62.6799 28.184C63.8483 28.2881 64.9057 28.1 65.852 27.6197C66.8063 27.14 67.6269 26.3944 68.314 25.3828C69.0091 24.3718 69.5525 23.1175 69.9441 21.6197ZM76.6608 34.9475L82.9333 10.7255L93.5455 11.6712C95.3702 11.8338 96.8813 12.3033 98.0786 13.0795C99.2759 13.8557 100.095 14.8927 100.536 16.1904C100.977 17.4881 100.976 18.9965 100.532 20.7155C100.087 22.4505 99.3184 23.8784 98.2264 24.9992C97.143 26.1126 95.8172 26.9141 94.249 27.4035C92.6894 27.8857 90.9733 28.0433 89.1006 27.8764L82.7621 27.3116L84.0886 22.2026L89.0825 22.6476C89.8669 22.7175 90.5637 22.6828 91.173 22.5435C91.7831 22.3962 92.2911 22.1269 92.697 21.7355C93.1037 21.3361 93.3944 20.7893 93.5692 20.095C93.7441 19.4007 93.739 18.8235 93.5542 18.3634C93.37 17.8952 93.0271 17.5339 92.5254 17.2795C92.0245 17.017 91.3899 16.8516 90.6216 16.7831L88.2686 16.5734L83.3354 35.5423L76.6608 34.9475ZM93.9448 25.1137L97.2129 36.779L89.962 36.1329L86.838 24.4804L93.9448 25.1137ZM99.5718 36.9892L105.844 12.7673L123.563 14.3463L122.172 19.6431L111.127 18.6589L110.079 22.8246L120.211 23.7276L118.819 29.0244L108.687 28.1215L107.638 32.2872L118.634 33.2672L117.243 38.564L99.5718 36.9892Z" fill="#1E2125"/>
</svg>
