<svg width="14" height="21" viewBox="0 0 14 21" fill="none" xmlns="http://www.w3.org/2000/svg">
<path d="M4.99326 8.0099L10.6507 9.94088C12.6929 10.6535 13.6789 12.0558 13.6789 14.2166C13.6789 16.6993 11.6601 18.7452 9.19522 18.7452H8.98395V18.8602C8.98395 19.8027 8.18581 20.5843 7.22335 20.5843C6.26089 20.5843 5.46275 19.8027 5.46275 18.8602V18.7222C2.85707 18.6073 0.767822 16.4694 0.767822 13.8028C0.767822 12.8603 1.56596 12.0787 2.52842 12.0787C3.49088 12.0787 4.28902 12.8603 4.28902 13.8028C4.28902 14.6304 4.89936 15.297 5.65055 15.297H9.17175C9.71166 15.297 10.1342 14.8143 10.1342 14.2166C10.1342 13.414 9.99406 13.3663 9.45745 13.1835L9.45344 13.1822L3.79605 11.2512C1.77723 10.5615 0.767822 9.15929 0.767822 6.97545C0.767822 4.49276 2.78664 2.44684 5.25148 2.44684H5.46275V2.35489C5.46275 1.41239 6.26089 0.630798 7.22335 0.630798C8.18581 0.630798 8.98395 1.41239 8.98395 2.35489V2.49281C11.5896 2.60775 13.6789 4.74562 13.6789 7.41221C13.6789 8.35472 12.8807 9.1363 11.9183 9.1363C10.9558 9.1363 10.1577 8.35472 10.1577 7.41221C10.1577 6.58465 9.54734 5.918 8.79615 5.918H5.27496C4.73504 5.918 4.3125 6.40075 4.3125 6.99843C4.28902 7.78002 4.42987 7.826 4.99326 8.0099Z" fill="#404144"/>
</svg>
