<svg width="90" height="47" viewBox="0 0 90 47" fill="none" xmlns="http://www.w3.org/2000/svg">
<path d="M44.3954 41.655C37.3244 41.594 30.1584 40.512 23.4564 38.224C17.6334 36.235 11.2694 33.06 7.92136 27.654C6.10436 24.72 5.59536 21.23 6.82736 17.966C7.97636 14.922 10.3174 12.47 12.8904 10.556C18.5494 6.343 25.3134 4.46 32.1594 3.259C45.9594 0.833 61.5684 1.437 74.0244 8.526C79.5584 11.675 85.4414 17.367 83.5254 24.38C81.8414 30.55 75.5244 34.478 70.0104 36.85C65.9574 38.595 61.6554 39.746 57.3204 40.537C53.1104 41.306 48.6814 41.859 44.3954 41.655ZM44.9114 0C37.3824 0 29.8494 0.871 22.6134 3.004C16.0934 4.926 9.35336 7.867 4.59336 12.87C2.21936 15.366 0.372362 18.504 0.0483622 21.988C-0.279638 25.532 1.09036 28.918 3.25936 31.666C7.52736 37.072 14.2144 40.343 20.6204 42.467C34.8064 47.168 49.9024 47.671 64.3844 44.006C71.1674 42.289 78.0324 39.633 83.4404 35.073C86.0514 32.873 88.3584 30.125 89.4214 26.834C90.5254 23.416 89.9994 19.794 88.2734 16.681C84.3924 9.685 76.1714 5.802 68.8784 3.451C61.0994 0.943 52.9534 0.00400019 44.8034 0.00400019" fill="#404144"/>
<path d="M62.1133 9.04399C59.9353 9.04399 57.7593 9.04399 55.5843 9.04399C55.9143 11.909 56.2453 14.774 56.5743 17.639C48.8643 17.639 41.1573 17.639 33.4483 17.639C33.7793 14.774 34.1093 11.908 34.4373 9.04399C33.6143 9.04399 27.8923 8.97299 27.8803 8.98199C27.8513 8.99799 26.9833 14.033 26.5343 16.447C25.4743 22.146 24.4153 27.844 23.3553 33.541C24.1523 33.541 31.6033 33.7 31.6223 33.535C31.9863 30.374 32.3483 27.212 32.7133 24.048C32.7983 23.306 32.8843 22.56 32.9693 21.816C32.9863 21.673 33.0923 20.855 33.0833 20.828C33.0783 20.813 34.7193 20.828 35.0413 20.828C38.7013 20.828 42.3593 20.828 46.0203 20.828C49.2713 20.828 52.5233 20.828 55.7743 20.828C56.0533 20.828 56.9203 20.65 56.9583 20.986C57.1123 22.314 57.2663 23.641 57.4183 24.969C57.4883 25.59 58.2403 33.541 58.4143 33.541C61.1643 33.541 63.9173 33.541 66.6693 33.541C65.1483 25.377 63.6313 17.209 62.1133 9.04399Z" fill="#404144"/>
</svg>
