<svg width="32" height="32" viewBox="0 0 32 32" fill="none" xmlns="http://www.w3.org/2000/svg">
<path fill-rule="evenodd" clip-rule="evenodd" d="M11.1491 11.1491C11.6601 10.6381 12.4886 10.6381 12.9996 11.1491L15.9999 14.1494L19.0002 11.1491C19.5112 10.6381 20.3397 10.6381 20.8507 11.1491C21.3617 11.6601 21.3617 12.4886 20.8507 12.9996L17.8504 15.9999L20.8507 19.0002C21.3617 19.5112 21.3617 20.3397 20.8507 20.8507C20.3397 21.3617 19.5112 21.3617 19.0002 20.8507L15.9999 17.8504L12.9996 20.8507C12.4886 21.3617 11.6601 21.3617 11.1491 20.8507C10.6381 20.3397 10.6381 19.5112 11.1491 19.0002L14.1494 15.9999L11.1491 12.9996C10.6381 12.4886 10.6381 11.6601 11.1491 11.1491Z" fill="#FDFFFF"/>
</svg>
