<svg width="33" height="33" viewBox="0 0 33 33" fill="none" xmlns="http://www.w3.org/2000/svg">
<path d="M21.778 12.375H11.222C10.4972 12.375 9.87186 12.375 9.35684 12.417C8.81324 12.4615 8.27256 12.5595 7.75229 12.8246C6.97612 13.2201 6.34508 13.8511 5.9496 14.6273C5.68451 15.1476 5.58645 15.6882 5.54204 16.2318C5.49996 16.7469 5.49998 17.3721 5.5 18.097V24.528C5.49998 25.2528 5.49996 25.8781 5.54204 26.3932C5.58645 26.9368 5.68451 27.4774 5.9496 27.9977C6.34508 28.7739 6.97612 29.4049 7.75229 29.8004C8.27256 30.0655 8.81324 30.1636 9.35684 30.208C9.87187 30.2501 10.4972 30.25 11.222 30.25H21.778C22.5028 30.25 23.1281 30.2501 23.6432 30.208C24.1868 30.1636 24.7274 30.0655 25.2477 29.8004C26.0239 29.4049 26.6549 28.7739 27.0504 27.9977C27.3155 27.4774 27.4136 26.9368 27.458 26.3932C27.5 25.8782 27.5 25.2529 27.5 24.5281V18.097C27.5 17.3723 27.5 16.7468 27.458 16.2318C27.4136 15.6882 27.3155 15.1476 27.0504 14.6273C26.6549 13.8511 26.0239 13.2201 25.2477 12.8246C24.7274 12.5595 24.1868 12.4615 23.6432 12.417C23.1281 12.375 22.5028 12.375 21.778 12.375Z" fill="#1E2125"/>
<path d="M15.125 22C15.125 21.2406 15.7406 20.625 16.5 20.625V20.625C17.2594 20.625 17.875 21.2406 17.875 22V23.375C17.875 24.1344 17.2594 24.75 16.5 24.75V24.75C15.7406 24.75 15.125 24.1344 15.125 23.375V22Z" fill="#1E2125"/>
<path fill-rule="evenodd" clip-rule="evenodd" d="M11 8.25C11 5.21243 13.4624 2.75 16.5 2.75C19.5376 2.75 22 5.21243 22 8.25V12.375H19.25V8.25C19.25 6.73122 18.0188 5.5 16.5 5.5C14.9812 5.5 13.75 6.73122 13.75 8.25V12.375H11V8.25Z" fill="#1E2125"/>
</svg>
