<svg width="93" height="94" viewBox="0 0 93 94" fill="none" xmlns="http://www.w3.org/2000/svg">
<path d="M47 30C42.3814 30 37.7627 30.1876 33.1444 30.5584H32.6842C32.6794 30.5707 32.6748 30.5832 32.6699 30.5954C30.5437 30.7723 28.4178 30.9901 26.2919 31.2453L26.1213 31.1585C26.1024 31.1965 26.0843 31.2345 26.0654 31.2725C23.4265 31.5927 20.7879 31.9714 18.1494 32.4127L17.3337 32.5495L17.0873 33.3471C17.0456 33.4828 17.0059 33.6166 16.965 33.7512H15.386L13 43.3309H14.8983C14.3525 48.6041 15.0042 53.6041 17.1 59.7393L17.2909 60.299L17.8267 60.5378C25.1862 63.8207 30.6384 63.8207 37.9979 60.5378C41.3216 59.0552 42.9181 56.2868 44.0872 54.2025C44.6717 53.1602 45.1767 52.2787 45.6419 51.7625C46.1072 51.2462 46.3943 51.074 47 51.074C47.6057 51.074 47.8929 51.2462 48.3581 51.7625C48.8233 52.2787 49.3283 53.1602 49.9128 54.2025C51.0819 56.2868 52.6784 59.0552 56.0021 60.5378C63.3616 63.8207 68.8138 63.8207 76.1733 60.5378L76.7728 60.2703L76.933 59.6277C78.4543 53.5194 79.0186 48.5747 78.6275 43.3309H81L78.614 33.7515H77.0136C76.9865 33.6407 76.9607 33.5314 76.9331 33.4201L76.7184 32.5576L75.8505 32.4126C66.2356 30.8041 56.6178 30 47 30ZM47 32.7132C56.1758 32.7132 65.3517 33.4735 74.53 34.9614C76.6046 43.6632 76.5909 49.5529 74.4805 58.3044C67.9027 61.128 63.829 61.0626 57.0858 58.0546C54.588 56.9403 53.4009 54.9193 52.2476 52.863C51.6708 51.8351 51.13 50.8084 50.3424 49.9343C49.5551 49.0604 48.3825 48.3597 47 48.3597C45.6176 48.3597 44.4451 49.0604 43.6576 49.9343C42.8702 50.8084 42.3292 51.8351 41.7525 52.8632C40.5994 54.9194 39.4122 56.9404 36.9145 58.0547C36.2852 58.3352 35.679 58.5903 35.0919 58.8199C35.5029 49.6751 37.8246 41.0831 41.2612 32.8141C43.1744 32.7482 45.0872 32.7131 47.0001 32.7131L47 32.7132ZM31.6126 33.4201C28.5818 41.9177 26.7059 50.8789 25.7436 60.2067C24.5769 60.0381 23.3776 59.7363 22.0971 59.302C22.367 50.3915 24.0831 41.8659 27.8313 33.8082C29.0917 33.665 30.3524 33.5353 31.6126 33.4201ZM24.7142 34.1906C21.3983 41.871 19.7982 49.9372 19.4496 58.247C16.5628 49.5069 16.8041 43.7184 19.4168 34.9688C21.1827 34.6823 22.9484 34.423 24.714 34.1903L24.7142 34.1906Z" fill="white"/>
</svg>
