<svg width="93" height="94" viewBox="0 0 93 94" fill="none" xmlns="http://www.w3.org/2000/svg">
<path d="M40.6185 20C40.0025 20 39.4027 20.0195 38.8516 20.047C37.3602 20.1216 36.0958 20.295 35.2367 20.5268C34.9449 20.6063 34.7342 20.697 34.5559 20.783C34.7828 21.0083 35.0908 21.2774 35.5447 21.5918C36.8415 22.5012 38.9326 23.6035 41.429 24.6572C46.4379 26.7645 53.0841 28.6935 58.628 29.0988C60.638 29.2447 62.0159 28.6125 62.9074 27.8344C63.799 27.0401 64.0908 26.0026 64.0746 25.7595C64.0584 25.5812 63.8638 25.1759 63.1668 24.641C62.4698 24.1222 61.3513 23.5549 59.9734 23.0362C57.2177 21.9987 53.4245 21.1574 49.5827 20.6338C46.6973 20.2415 43.7957 20.0227 41.2507 20.0016H40.6185V20ZM33.0645 23.3604C31.5894 26.6024 30.0008 30.2173 28.7364 33.3296C29.9522 34.2374 31.2652 35.1614 32.6269 36.0529C34.0696 34.7723 36.42 33.7835 36.42 33.7835C36.42 33.7835 35.2691 35.599 34.4748 37.2363C36.3552 38.4034 38.3166 39.5219 40.3105 40.5431C41.6883 38.76 44.9142 37.1714 44.9142 37.1714C44.9142 37.1714 43.8767 39.8461 43.2121 41.9534C45.1249 42.845 47.0701 43.6231 48.9667 44.2553C49.5827 44.466 50.1987 44.6605 50.8147 44.8388C51.7873 42.3101 54.154 39.1653 54.154 39.1653C54.154 39.1653 54.6078 42.8936 54.4944 45.7142C56.9259 46.1519 59.2439 46.2977 61.3351 46.0708C62.486 43.234 62.8102 39.8299 62.5508 37.4308C64.6095 39.2625 65.2903 42.1804 65.6145 44.9199C65.8901 44.7902 66.1657 44.6605 66.4413 44.4984C65.9225 40.5431 65.2579 34.7561 64.9823 29.8606C64.9175 29.9093 64.8689 29.9579 64.8202 30.0065C63.3613 31.3033 61.1567 32.1949 58.401 31.9842C52.3871 31.5465 45.5626 29.5527 40.3105 27.3319C37.6844 26.2296 35.4474 25.0786 33.875 23.9601C33.5833 23.7656 33.3077 23.5549 33.0645 23.3604ZM23.6464 35.0965C17.2353 35.0317 11.531 36.0853 8.26623 40.0893C5.44534 43.542 25.543 61.0814 44.7845 68.7975C59.1467 74.5521 73.3306 77.3888 82.0192 66.9981C90.4161 56.9478 78.6475 44.3687 68.6134 38.1927C69.2456 43.8824 69.9751 48.8427 69.9751 48.8427V49.0211C70.0237 50.561 69.3591 52.0037 68.2892 52.9925C67.2031 53.9814 65.7766 54.5811 64.1232 54.9702C60.8326 55.7159 56.5693 55.5537 51.8521 54.646C42.434 52.8304 31.2976 47.9836 24.0355 40.2027L23.5005 39.6354L23.6789 38.8735C23.922 37.8523 24.3435 36.5716 24.8784 35.1289C24.4732 35.1127 24.0517 35.0965 23.6464 35.0965ZM27.6503 36.134C27.2613 37.1552 26.9533 38.063 26.7264 38.8087C28.3474 40.4459 30.1629 41.9534 32.1243 43.3151C31.7029 41.9048 31.2976 40.1379 31.3625 38.6952C30.0819 37.8523 28.8337 36.9931 27.6503 36.134ZM33.5508 40.0893C33.3239 41.3536 33.178 42.8288 33.0807 43.9635C35.5609 45.5845 38.2194 47.011 40.9427 48.1943C40.3915 46.8327 39.7918 45.0334 39.6459 43.461C37.5548 42.4235 35.5123 41.2726 33.5508 40.0893ZM42.5313 44.8388C42.3205 46.1032 42.1422 47.5621 42.0288 48.6482C45.0925 49.9126 48.2048 50.8852 51.1389 51.5336C50.8471 50.4151 50.5391 48.9886 50.4418 47.7405C49.6313 47.5135 48.837 47.2704 48.0427 46.9948C46.211 46.3788 44.363 45.6493 42.5313 44.8388ZM66.8465 47.5621C66.4899 47.7242 66.1333 47.8863 65.7604 48.016C65.6956 49.2156 65.5011 50.4151 65.2255 51.5498C65.6956 51.3391 66.0522 51.096 66.3278 50.8528C66.8627 50.3503 67.0897 49.8964 67.0735 49.1345C67.0572 49.0697 66.96 48.324 66.8465 47.5621ZM53.9756 48.5672C53.6028 49.6532 53.0517 50.869 52.5816 51.8254C56.9583 52.6521 60.865 52.717 63.491 52.1334H63.5072C63.1506 51.0473 62.7453 49.9288 62.1456 48.9238C59.5844 49.2642 56.8286 49.1021 53.9756 48.5672Z" fill="white"/>
</svg>
