<svg width="93" height="94" viewBox="0 0 93 94" fill="none" xmlns="http://www.w3.org/2000/svg">
<path d="M52.1334 13H33.2081C32.431 13 31.7558 13.5337 31.5763 14.2896L31.3777 15.1261C31.0579 16.4725 30.8182 17.8354 30.6545 19.2072H52.1336V13H52.1334ZM48.9561 17.9322C48.0315 17.9322 47.282 17.1827 47.282 16.2582C47.282 15.3336 48.0315 14.5841 48.9561 14.5841C49.8806 14.5841 50.6301 15.3336 50.6301 16.2582C50.6301 17.1827 49.8806 17.9322 48.9561 17.9322Z" fill="white"/>
<path d="M61.0559 15.1254L60.8575 14.2898C60.6779 13.5337 60.0026 13 59.2255 13H55.5578V19.2074H61.7789C61.6155 17.8352 61.376 16.4721 61.0559 15.1254Z" fill="white"/>
<path d="M61.9935 74.3963H61.6312L62.0353 23.7857C62.0382 23.4008 62.0344 23.0163 62.0252 22.6319H30.4077C30.3986 23.0161 30.3945 23.4003 30.3977 23.785L30.7978 74.3963H30.326C29.9089 74.3963 29.5706 74.7344 29.5706 75.1517V80.2474C29.5706 80.6645 29.9087 81.0028 30.326 81.0028H43.7303C44.1474 81.0028 44.4857 80.6647 44.4857 80.2474V75.1517C44.4857 74.7346 44.1476 74.3963 43.7303 74.3963H43.4072L45.7757 32.8856C45.789 32.6529 45.9814 32.4712 46.2143 32.4712C46.4472 32.4712 46.6396 32.6529 46.6528 32.8856L49.0214 74.3963H48.5892C48.1721 74.3963 47.8338 74.7344 47.8338 75.1517V80.2474C47.8338 80.6645 48.1719 81.0028 48.5892 81.0028H61.9935C62.4106 81.0028 62.7489 80.6647 62.7489 80.2474V75.1517C62.7489 74.7344 62.4108 74.3963 61.9935 74.3963Z" fill="white"/>
</svg>
