<svg width="93" height="94" viewBox="0 0 93 94" fill="none" xmlns="http://www.w3.org/2000/svg">
<path d="M47.2529 66.9237L16.7878 41.0659L15 43.1734L45.4687 69.0347L45.4729 69.0384C48.9364 71.9527 53.3322 73.5566 57.8594 73.5574H77.3865V70.7932H57.8596C53.9867 70.7934 50.2149 69.4186 47.2529 66.9237Z" fill="white"/>
<path d="M39.8351 57.0689L46.6745 62.8244C46.4218 61.553 45.8658 60.1939 44.7676 58.94C43.9168 57.9673 42.0901 55.9606 39.8928 53.5024C39.8355 54.6893 39.8127 55.8891 39.8351 57.0689Z" fill="white"/>
<path d="M32.2286 41.1375C31.0421 40.0796 29.9875 39.1006 29.1154 38.2285C29.9607 39.5355 30.7434 40.7225 31.9094 42.1961C32.0118 41.8473 32.1187 41.4948 32.2286 41.1375Z" fill="white"/>
<path d="M38.7992 46.7483C37.0218 45.27 35.3237 43.8403 33.7863 42.5058C33.6773 43.0105 33.5684 43.5279 33.464 44.0601C34.667 45.4413 36.2163 47.0973 38.3269 49.2239C38.4667 48.4216 38.6229 47.5945 38.7992 46.7483Z" fill="white"/>
<path d="M55.356 67.795C55.3105 65.5731 54.8187 60.0722 51.2097 57.0248C47.8017 54.1471 43.9746 51.0303 40.3654 48.0463C40.2541 48.9714 40.1516 49.9496 40.0651 50.957C40.3017 51.1915 40.5399 51.426 40.789 51.6696C45.6785 56.4626 49.4855 60.2279 49.9233 65.4952C51.5505 66.6511 53.4046 67.4323 55.356 67.795Z" fill="white"/>
<path d="M32.485 50.8845L37.5078 55.1114C37.6233 54.0085 37.7771 52.7419 37.9823 51.3572C36.4019 49.5702 34.7313 47.6541 33.1478 45.7784C32.8609 47.438 32.6228 49.1718 32.485 50.8845Z" fill="white"/>
<path d="M31.4684 43.7619C28.9982 40.7513 26.9483 38.0284 26.1378 36.3779L26.8192 35.5619C26.8178 35.5609 26.8165 35.5591 26.8165 35.5591L27.6316 34.5498C27.6316 34.5498 29.7639 36.5941 32.8183 39.3179C33.3083 37.8726 33.862 36.3953 34.489 34.9253L35.6489 35.3631C35.6489 35.3631 34.9707 37.4825 34.2297 40.5654C35.7748 41.9191 37.4811 43.3772 39.23 44.8024C39.558 43.4111 39.9367 41.9887 40.3768 40.5645L41.5185 40.8677C41.5185 40.8677 41.0769 42.9339 40.6447 45.939C42.5196 47.4255 44.4027 48.8305 46.1457 49.9845C53.596 54.9213 58.6945 60.0851 59.2274 68.0296C61.7603 68.0296 67.3973 68.0296 72.5501 68.0296C79.4592 68.0296 78.4228 61.121 73.9317 60.0851C70.9024 59.3853 67.0103 57.7779 67.0103 57.7779C65.4747 57.2659 64.2181 56.143 63.5376 54.6739C63.5376 54.6739 63.37 54.3196 63.0884 53.7186L57.447 55.425C56.8305 55.6108 56.1798 55.262 55.9935 54.6465C55.807 54.0301 56.1555 53.3788 56.7719 53.1929L62.0866 51.5854C61.6294 50.6128 61.0991 49.4807 60.5405 48.2865L55.269 49.8809C54.6536 50.0668 54.0018 49.7188 53.8155 49.1025C53.6292 48.486 53.978 47.8358 54.594 47.649L59.543 46.1523C59.0164 45.0221 58.4921 43.8965 58.0076 42.8505L53.0914 44.337C52.4755 44.5238 51.8244 44.175 51.6379 43.5585C51.4521 42.9431 51.8001 42.2919 52.416 42.1059L57.0211 40.7129C56.3612 39.2757 55.8813 38.2116 55.7544 37.8818C55.1993 36.4402 53.9826 32.4441 51.2056 34.667C46.6402 38.3206 38.3119 37.248 36.1619 33.2538C34.5499 30.2598 35.4708 27.0358 36.1619 24.5024C36.7137 22.4773 33.8579 19.3202 31.7852 22.0835C30.3197 24.0372 17.9666 38.6659 17.9666 38.6659L30.2328 48.9882C30.535 47.4951 30.9399 45.7101 31.4684 43.7619Z" fill="white"/>
</svg>
