<svg width="93" height="94" viewBox="0 0 93 94" fill="none" xmlns="http://www.w3.org/2000/svg">
<path d="M74.9447 30.3923C72.3401 27.2341 69.852 22.9243 66.525 20.5223C65.7179 19.9394 64.826 19.5649 63.9008 19.2816C61.4641 17.9241 58.1112 17.022 55.7194 17.0001C55.0223 16.9935 54.2599 17.531 54.0878 18.2513C53.3248 18.4925 52.6346 19.0518 52.2827 20.0529C51.2874 22.8827 48.6168 24.2013 45.791 24.3645C44.0743 24.4635 38.9516 23.668 38.8652 21.0994C38.8356 20.2049 37.9744 19.3869 37.0652 19.6983C36.9425 19.7403 36.8194 19.7825 36.6967 19.8245C36.4987 19.6826 36.2819 19.5836 36.0507 19.6142C32.7046 20.055 29.1561 19.2127 26.1893 21.4305C22.7152 24.0282 20.8887 29.4286 17.9209 32.6895C16.1017 34.6885 13.3933 36.3665 14.1215 39.4238C15.1268 43.6471 20.592 47.6449 23.6745 50.2197C25.1102 51.4189 26.7723 51.1754 27.8669 49.6677C28.2588 49.128 28.659 48.5847 29.0603 48.046C28.5519 56.9556 29.3918 65.9191 29.3736 74.8408C29.37 76.3878 30.6258 77.5684 32.0987 77.6253C41.6798 77.9957 51.2717 78.1304 60.8571 77.8504C61.4641 77.8325 61.933 77.6194 62.3373 77.3396C63.4308 77.2987 64.4699 76.5701 64.3976 75.1712C64.1326 70.061 65.3118 65.1097 65.6649 60.033C65.9709 55.6247 65.7791 51.2384 65.2843 46.8651C66.7917 48.0106 68.4279 49.0179 69.9399 49.9623C71.2087 50.7551 72.7129 50.17 73.5039 49.0075C75.4686 46.1191 79.5912 42.1388 79.9775 38.5305C80.317 35.3598 76.73 32.5579 74.9447 30.3923Z" fill="#404144"/>
</svg>
