<svg width="25" height="24" viewBox="0 0 25 24" fill="none" xmlns="http://www.w3.org/2000/svg">
<path d="M12.5 9L9.5 12M9.5 12L12.5 15M9.5 12L20.5 12M20.5 16.752L20.5 16.7998C20.5 17.9199 20.5 18.4804 20.282 18.9082C20.0903 19.2845 19.7845 19.5903 19.4082 19.782C18.9804 20 18.4199 20 17.2998 20L7.6998 20C6.5797 20 6.02043 20 5.59261 19.782C5.21628 19.5903 4.90952 19.2845 4.71777 18.9082C4.5 18.4808 4.5 17.921 4.5 16.8031L4.5 7.19642C4.5 6.07851 4.5 5.51952 4.71777 5.09212C4.90952 4.71579 5.21628 4.40952 5.5926 4.21777C6.02001 4 6.57899 4 7.69691 4L17.3031 4C18.421 4 18.9808 4 19.4082 4.21777C19.7845 4.40952 20.0903 4.71609 20.282 5.09241C20.5 5.52023 20.5 6.0799 20.5 7.2L20.5 7.25" stroke="white" stroke-width="2" stroke-linecap="round" stroke-linejoin="round"/>
</svg>
