<svg width="118" height="118" viewBox="0 0 118 118" fill="none" xmlns="http://www.w3.org/2000/svg">
<path d="M29.4974 54.0843V30.4843C29.4974 24.9771 29.4974 22.2215 30.5692 20.118C31.5119 18.2677 33.0151 16.7645 34.8654 15.8218C36.9689 14.75 39.7245 14.75 45.2317 14.75H67.2314C67.834 14.75 68.3612 14.75 68.8307 14.7543M98.3261 44.25C98.3306 44.7201 98.3307 45.2479 98.3307 45.8513V87.5342C98.3307 93.0306 98.3307 95.779 97.26 97.8804C96.3173 99.7307 94.81 101.237 92.9597 102.179C90.8583 103.25 88.109 103.25 82.6124 103.25L63.9141 103.25M98.3261 44.25C98.3128 42.8463 98.2606 41.9576 98.057 41.1099C97.8162 40.1065 97.4173 39.1472 96.8781 38.2674C96.27 37.275 95.4244 36.427 93.7237 34.7263L78.3568 19.3594C76.6572 17.6598 75.8053 16.8079 74.8133 16.2C73.9335 15.6609 72.9751 15.2626 71.9717 15.0217C71.1236 14.8181 70.2351 14.7671 68.8307 14.7543M98.3261 44.25H98.3317M98.3261 44.25H84.5489C79.0525 44.25 76.3001 44.25 74.1987 43.1793C72.3485 42.2365 70.8453 40.7292 69.9025 38.879C68.8307 36.7755 68.8307 34.0238 68.8307 28.5167V14.7543M44.2474 68.8333L54.0807 78.6667M19.6641 103.25V90.9583L56.5391 54.0833L68.8307 66.375L31.9557 103.25H19.6641Z" stroke="white" stroke-width="7" stroke-linecap="round" stroke-linejoin="round"/>
</svg>
