<svg width="118" height="118" viewBox="0 0 118 118" fill="none" xmlns="http://www.w3.org/2000/svg">
<path d="M58.9974 73.7494L73.7474 58.9993M73.7474 58.9993L58.9974 44.2493M73.7474 58.9993H19.6641M44.2474 35.6382V35.4003C44.2474 29.8931 44.2474 27.1375 45.3192 25.034C46.2619 23.1838 47.7651 21.6805 49.6154 20.7378C51.7189 19.666 54.4745 19.666 59.9817 19.666H82.5984C88.1055 19.666 90.8553 19.666 92.9587 20.7378C94.809 21.6805 96.3173 23.1838 97.26 25.034C98.3307 27.1354 98.3307 29.8877 98.3307 35.3842V82.6169C98.3307 88.1134 98.3307 90.8617 97.26 92.9631C96.3173 94.8134 94.809 96.3192 92.9587 97.262C90.8573 98.3327 88.109 98.3327 82.6126 98.3327H59.9655C54.4691 98.3327 51.7168 98.3327 49.6154 97.262C47.7651 96.3192 46.2619 94.8119 45.3192 92.9617C44.2474 90.8582 44.2474 88.1065 44.2474 82.5993V82.3535" stroke="white" stroke-width="7" stroke-linecap="round" stroke-linejoin="round"/>
</svg>
