<svg width="42" height="42" viewBox="0 0 42 42" fill="none" xmlns="http://www.w3.org/2000/svg">
<path d="M33.25 33.25L28 28M17.5003 35H12.5946C10.6383 35 9.6586 35 8.91064 34.6189C8.25208 34.2833 7.71703 33.7474 7.38148 33.0888C7 32.3401 7 31.3605 7 29.4003V12.6003C7 10.6402 7 9.65934 7.38148 8.91064C7.71703 8.25208 8.25208 7.71703 8.91064 7.38148C9.65934 7 10.6402 7 12.6003 7H29.4003C31.3605 7 32.3392 7 33.0879 7.38148C33.7465 7.71703 34.2833 8.25208 34.6189 8.91064C35 9.6586 35 10.6382 35 12.5946V17.5003M23.625 29.75C20.2423 29.75 17.5 27.0077 17.5 23.625C17.5 20.2423 20.2423 17.5 23.625 17.5C27.0077 17.5 29.75 20.2423 29.75 23.625C29.75 27.0077 27.0077 29.75 23.625 29.75Z" stroke="white" stroke-width="2" stroke-linecap="round" stroke-linejoin="round"/>
</svg>
