<svg width="24" height="25" viewBox="0 0 24 25" fill="none" xmlns="http://www.w3.org/2000/svg">
<path d="M2 7.76879C2 6.64868 2 6.08863 2.21799 5.66081C2.40973 5.28448 2.71569 4.97852 3.09202 4.78677C3.51984 4.56879 4.0799 4.56879 5.2 4.56879H18.8C19.9201 4.56879 20.4802 4.56879 20.908 4.78677C21.2843 4.97852 21.5903 5.28448 21.782 5.66081C22 6.08863 22 6.64868 22 7.76879V11.3688C22 12.4889 22 13.0489 21.782 13.4768C21.5903 13.8531 21.2843 14.1591 20.908 14.3508C20.4802 14.5688 19.9201 14.5688 18.8 14.5688H5.2C4.0799 14.5688 3.51984 14.5688 3.09202 14.3508C2.71569 14.1591 2.40973 13.8531 2.21799 13.4768C2 13.0489 2 12.4889 2 11.3688V7.76879Z" fill="white" fill-opacity="0.25"/>
<path fill-rule="evenodd" clip-rule="evenodd" d="M7.10899 10.1149C7 10.3288 7 10.6088 7 11.1688V17.3688C7 18.489 7 19.049 7.21799 19.4768C7.40973 19.8532 7.71569 20.1591 8.09202 20.3509C8.51984 20.5688 9.0799 20.5688 10.2 20.5688H12V9.56885H8.6C8.03995 9.56885 7.75992 9.56885 7.54601 9.67784C7.35785 9.77371 7.20487 9.9267 7.10899 10.1149ZM14 9.56885V20.5688C14.9883 20.568 15.5064 20.5555 15.908 20.3509C16.2843 20.1591 16.5903 19.8532 16.782 19.4768C17 19.049 17 18.489 17 17.3688V11.1688C17 10.6088 17 10.3288 16.891 10.1149C16.7951 9.9267 16.6422 9.77371 16.454 9.67784C16.2401 9.56885 15.9601 9.56885 15.4 9.56885H14Z" fill="white"/>
</svg>
