<svg width="13" height="22" viewBox="0 0 13 22" fill="none" xmlns="http://www.w3.org/2000/svg">
<path d="M4.42727 7.83492L9.68546 9.86717C11.5836 10.6172 12.5 12.093 12.5 14.3672C12.5 16.9801 10.6236 19.1333 8.33273 19.1333H8.13636V19.2543C8.13636 20.2462 7.39455 21.0688 6.5 21.0688C5.60545 21.0688 4.86364 20.2462 4.86364 19.2543V19.1091C2.44182 18.9881 0.5 16.7381 0.5 13.9317C0.5 12.9398 1.24182 12.1172 2.13636 12.1172C3.03091 12.1172 3.77273 12.9398 3.77273 13.9317C3.77273 14.8027 4.34 15.5043 5.03818 15.5043H8.31091C8.81273 15.5043 9.20545 14.9962 9.20545 14.3672C9.20545 13.5225 9.07519 13.4723 8.57645 13.2799L8.57273 13.2785L3.31455 11.2462C1.43818 10.5204 0.5 9.04459 0.5 6.74621C0.5 4.1333 2.37636 1.98008 4.66727 1.98008H4.86364V1.8833C4.86364 0.891367 5.60545 0.0687866 6.5 0.0687866C7.39455 0.0687866 8.13636 0.891367 8.13636 1.8833V2.02846C10.5582 2.14943 12.5 4.39943 12.5 7.20588C12.5 8.19782 11.7582 9.0204 10.8636 9.0204C9.96909 9.0204 9.22727 8.19782 9.22727 7.20588C9.22727 6.33491 8.66 5.6333 7.96182 5.6333H4.68909C4.18727 5.6333 3.79455 6.14137 3.79455 6.7704C3.77273 7.59298 3.90364 7.64137 4.42727 7.83492Z" fill="white"/>
</svg>
