<svg width="128" height="43" viewBox="0 0 128 43" fill="none" xmlns="http://www.w3.org/2000/svg">
<rect width="124.109" height="30.7575" transform="translate(3.57568 0.445312) rotate(5.09246)" fill="#F922FD"/>
<path d="M22.732 13.1048C22.8746 12.3189 22.7378 11.6815 22.3216 11.1927C21.906 10.6958 21.1581 10.3993 20.0776 10.303C19.3894 10.2417 18.806 10.2703 18.3275 10.389C17.8571 10.5085 17.4813 10.6968 17.2003 10.9541C16.9272 11.2121 16.7423 11.5223 16.6454 11.8848C16.5477 12.1665 16.5282 12.4309 16.5868 12.6781C16.6542 12.9181 16.7994 13.1448 17.0223 13.3583C17.2533 13.5724 17.5621 13.7734 17.9487 13.9611C18.3433 14.1495 18.8154 14.3287 19.3649 14.4987L21.2472 15.1021C22.534 15.5071 23.6006 15.9854 24.4468 16.5367C25.3018 17.0808 25.9569 17.6957 26.412 18.3816C26.8672 19.0675 27.1395 19.8138 27.229 20.6204C27.3264 21.4277 27.2534 22.2924 27.0099 23.2145C26.5937 24.8068 25.8435 26.1194 24.7593 27.1521C23.675 28.1848 22.3146 28.9227 20.6779 29.3657C19.0412 29.8087 17.1824 29.9375 15.1016 29.7521C12.9728 29.5624 11.1922 29.0851 9.75996 28.3202C8.33643 27.548 7.35102 26.476 6.80372 25.1043C6.26514 23.7253 6.25521 22.0264 6.77392 20.0075L13.1124 20.5724C12.9493 21.3161 12.973 21.9555 13.1835 22.4905C13.394 23.0255 13.7715 23.4504 14.3162 23.7652C14.8609 24.0799 15.5574 24.2751 16.4058 24.3507C17.126 24.4149 17.7501 24.3818 18.278 24.2513C18.8059 24.1209 19.2318 23.9128 19.5558 23.6271C19.8797 23.3414 20.0915 23.0013 20.1912 22.6068C20.288 22.2444 20.2532 21.9105 20.0868 21.6053C19.9204 21.3001 19.5955 21.0089 19.112 20.7319C18.6284 20.4549 17.9551 20.1811 17.0918 19.9106L14.786 19.1727C12.7399 18.5064 11.2339 17.5736 10.2679 16.3743C9.30192 15.175 9.06057 13.6288 9.54386 11.7359C9.93975 10.1901 10.706 8.87897 11.8425 7.80252C12.9877 6.71877 14.3896 5.92408 16.048 5.41847C17.7151 4.90556 19.525 4.73612 21.4778 4.91014C23.4626 5.08701 25.0937 5.56713 26.371 6.3505C27.6563 7.13458 28.5376 8.15289 29.0149 9.40543C29.5001 10.6587 29.5347 12.0815 29.1185 13.6739L22.732 13.1048ZM31.9109 11.5995L33.3026 6.3027L54.671 8.20695L53.2794 13.5038L45.8845 12.8448L41.0035 31.77L34.4249 31.1837L39.3058 12.2585L31.9109 11.5995ZM76.5982 22.9871C75.9118 25.6202 74.8237 27.7819 73.334 29.4722C71.8443 31.1626 70.1101 32.3834 68.1313 33.1347C66.1525 33.8861 64.0827 34.1655 61.9219 33.9729C59.6169 33.7675 57.6607 33.089 56.0532 31.9374C54.4457 30.7858 53.3397 29.211 52.7353 27.2131C52.1309 25.2151 52.1848 22.8443 52.8972 20.1006C53.5676 17.466 54.6484 15.2956 56.1395 13.5893C57.6306 11.8829 59.3743 10.6468 61.3705 9.88088C63.3667 9.11497 65.4532 8.829 67.6301 9.02299C69.919 9.22697 71.8628 9.9084 73.4617 11.0673C75.0685 12.2269 76.1694 13.8133 76.7644 15.8265C77.3674 17.8405 77.312 20.2273 76.5982 22.9871ZM69.944 21.6197C70.2936 20.2311 70.4151 19.0481 70.3086 18.0706C70.2029 17.0851 69.8636 16.3208 69.2909 15.7776C68.7188 15.2265 67.9126 14.9046 66.8722 14.8119C65.6877 14.7063 64.6136 14.901 63.6499 15.396C62.6862 15.8909 61.8561 16.6518 61.1596 17.6787C60.4631 18.7057 59.927 19.9688 59.5514 21.468C59.1684 22.8697 59.0388 24.052 59.1627 25.0149C59.2946 25.9786 59.6557 26.7247 60.2459 27.2532C60.844 27.7824 61.6553 28.0927 62.6797 28.184C63.8482 28.2881 64.9056 28.1 65.8518 27.6197C66.8061 27.14 67.6268 26.3944 68.3139 25.3828C69.009 24.3718 69.5524 23.1175 69.944 21.6197ZM76.6606 34.9475L82.9332 10.7255L93.5454 11.6712C95.3701 11.8338 96.8811 12.3033 98.0784 13.0795C99.2757 13.8557 100.095 14.8927 100.536 16.1904C100.977 17.4881 100.975 18.9965 100.532 20.7155C100.087 22.4505 99.3183 23.8784 98.2262 24.9992C97.1429 26.1126 95.8171 26.9141 94.2488 27.4035C92.6893 27.8857 90.9732 28.0433 89.1005 27.8764L82.7619 27.3116L84.0884 22.2026L89.0824 22.6476C89.8667 22.7175 90.5636 22.6828 91.1729 22.5435C91.783 22.3962 92.291 22.1269 92.6969 21.7355C93.1036 21.3361 93.3943 20.7893 93.5691 20.095C93.7439 19.4007 93.7389 18.8235 93.554 18.3634C93.3699 17.8952 93.027 17.5339 92.5253 17.2795C92.0244 17.017 91.3897 16.8516 90.6214 16.7831L88.2685 16.5734L83.3353 35.5423L76.6606 34.9475ZM93.9447 25.1137L97.2128 36.779L89.9619 36.1329L86.8379 24.4804L93.9447 25.1137ZM99.5717 36.9892L105.844 12.7673L123.563 14.3463L122.172 19.6431L111.127 18.6589L110.078 22.8246L120.21 23.7276L118.819 29.0244L108.687 28.1215L107.638 32.2872L118.634 33.2672L117.243 38.564L99.5717 36.9892Z" fill="#1E2125"/>
</svg>
