<svg width="268" height="289" viewBox="0 0 268 289" fill="none" xmlns="http://www.w3.org/2000/svg">
<path d="M43.7662 0V5.16071L41.1887 2.58035V175.464H7.68095C6.99735 175.464 6.34179 175.736 5.85841 176.22C5.37503 176.704 5.10344 177.36 5.10344 178.045V198.688C5.10344 199.372 5.37503 200.028 5.85841 200.512C6.34179 200.996 6.99735 201.268 7.68095 201.268H15.4135V263.196H7.68095C6.99735 263.196 6.34179 263.468 5.85841 263.952C5.37503 264.436 5.10344 265.092 5.10344 265.777V283.839H2.57752C1.89392 283.839 1.23827 284.111 0.754896 284.595C0.271518 285.079 0 285.735 0 286.42C0 287.104 0.271518 287.76 0.754896 288.244C1.23827 288.728 1.89392 289 2.57752 289H265.422C266.106 289 266.762 288.728 267.245 288.244C267.728 287.76 268 287.104 268 286.42C268 285.735 267.728 285.079 267.245 284.595C266.762 284.111 266.106 283.839 265.422 283.839H262.855V265.777C262.855 265.092 262.584 264.436 262.1 263.952C261.617 263.468 260.961 263.196 260.278 263.196H252.545V201.268H260.278C260.961 201.268 261.617 200.996 262.1 200.512C262.584 200.028 262.855 199.372 262.855 198.688V178.045C262.855 177.36 262.584 176.704 262.1 176.22C261.617 175.736 260.961 175.464 260.278 175.464H226.77V2.58035C226.77 1.896 226.498 1.23956 226.015 0.755648C225.532 0.271738 224.876 0 224.192 0H43.7662ZM46.3437 5.16071H221.615V175.464H46.3437V5.16071ZM64.3864 20.6428C63.7028 20.6428 63.0472 20.9146 62.5638 21.3985C62.0804 21.8824 61.8088 22.5388 61.8088 23.2232V59.3481C61.8088 60.0325 62.0804 60.6889 62.5638 61.1729C63.0472 61.6568 63.7028 61.9285 64.3864 61.9285H100.472C101.155 61.9285 101.811 61.6568 102.294 61.1729C102.778 60.6889 103.049 60.0325 103.049 59.3481V23.2232C103.049 22.5388 102.778 21.8824 102.294 21.3985C101.811 20.9146 101.155 20.6428 100.472 20.6428H64.3864ZM115.937 20.6428C115.253 20.6428 114.598 20.9146 114.114 21.3985C113.631 21.8824 113.359 22.5388 113.359 23.2232V59.3481C113.359 60.0325 113.631 60.6889 114.114 61.1729C114.598 61.6568 115.253 61.9285 115.937 61.9285H152.022C152.706 61.9285 153.361 61.6568 153.845 61.1729C154.328 60.6889 154.599 60.0325 154.599 59.3481V23.2232C154.599 22.5388 154.328 21.8824 153.845 21.3985C153.361 20.9146 152.706 20.6428 152.022 20.6428H115.937ZM167.487 20.6428C166.803 20.6428 166.148 20.9146 165.665 21.3985C165.181 21.8824 164.91 22.5388 164.91 23.2232V59.3481C164.91 60.0325 165.181 60.6889 165.665 61.1729C166.148 61.6568 166.803 61.9285 167.487 61.9285H203.572C204.256 61.9285 204.912 61.6568 205.395 61.1729C205.878 60.6889 206.15 60.0325 206.15 59.3481V23.2232C206.15 22.5388 205.878 21.8824 205.395 21.3985C204.912 20.9146 204.256 20.6428 203.572 20.6428H167.487ZM66.9639 25.8035H97.8941V56.7678H66.9639V25.8035ZM118.514 25.8035H149.444V56.7678H118.514V25.8035ZM170.065 25.8035H200.995V56.7678H170.065V25.8035ZM64.3864 72.2499C63.7028 72.2499 63.0472 72.5217 62.5638 73.0056C62.0804 73.4895 61.8088 74.1459 61.8088 74.8303V110.955C61.8088 111.64 62.0804 112.296 62.5638 112.78C63.0472 113.264 63.7028 113.536 64.3864 113.536H100.472C101.155 113.536 101.811 113.264 102.294 112.78C102.778 112.296 103.049 111.64 103.049 110.955V74.8303C103.049 74.1459 102.778 73.4895 102.294 73.0056C101.811 72.5217 101.155 72.2499 100.472 72.2499H64.3864ZM115.937 72.2499C115.253 72.2499 114.598 72.5217 114.114 73.0056C113.631 73.4895 113.359 74.1459 113.359 74.8303V110.955C113.359 111.64 113.631 112.296 114.114 112.78C114.598 113.264 115.253 113.536 115.937 113.536H152.022C152.706 113.536 153.361 113.264 153.845 112.78C154.328 112.296 154.599 111.64 154.599 110.955V74.8303C154.599 74.1459 154.328 73.4895 153.845 73.0056C153.361 72.5217 152.706 72.2499 152.022 72.2499H115.937ZM167.487 72.2499C166.803 72.2499 166.148 72.5217 165.665 73.0056C165.181 73.4895 164.91 74.1459 164.91 74.8303V110.955C164.91 111.64 165.181 112.296 165.665 112.78C166.148 113.264 166.803 113.536 167.487 113.536H203.572C204.256 113.536 204.912 113.264 205.395 112.78C205.878 112.296 206.15 111.64 206.15 110.955V74.8303C206.15 74.1459 205.878 73.4895 205.395 73.0056C204.912 72.5217 204.256 72.2499 203.572 72.2499H167.487ZM66.9639 77.4106H97.8941V108.375H66.9639V77.4106ZM118.514 77.4106H149.444V108.375H118.514V77.4106ZM170.065 77.4106H200.995V108.375H170.065V77.4106ZM64.3864 123.857C63.7028 123.857 63.0472 124.129 62.5638 124.613C62.0804 125.097 61.8088 125.753 61.8088 126.437V162.562C61.8088 162.901 61.8756 163.237 62.0051 163.55C62.1346 163.863 62.3245 164.147 62.5638 164.387C62.8032 164.627 63.0873 164.817 63.4 164.946C63.7128 165.076 64.0479 165.143 64.3864 165.143H100.472C101.155 165.143 101.811 164.871 102.294 164.387C102.778 163.903 103.049 163.247 103.049 162.562V126.437C103.049 125.753 102.778 125.097 102.294 124.613C101.811 124.129 101.155 123.857 100.472 123.857H64.3864ZM115.937 123.857C115.253 123.857 114.598 124.129 114.114 124.613C113.631 125.097 113.359 125.753 113.359 126.437V162.562C113.359 162.901 113.426 163.237 113.555 163.55C113.685 163.863 113.875 164.147 114.114 164.387C114.354 164.627 114.638 164.817 114.95 164.946C115.263 165.076 115.598 165.143 115.937 165.143H152.022C152.706 165.143 153.361 164.871 153.845 164.387C154.328 163.903 154.599 163.247 154.599 162.562V126.437C154.599 125.753 154.328 125.097 153.845 124.613C153.361 124.129 152.706 123.857 152.022 123.857H115.937ZM167.487 123.857C166.803 123.857 166.148 124.129 165.665 124.613C165.181 125.097 164.91 125.753 164.91 126.437V162.562C164.91 162.901 164.976 163.237 165.106 163.55C165.235 163.863 165.425 164.147 165.665 164.387C165.904 164.627 166.188 164.817 166.501 164.946C166.813 165.076 167.149 165.143 167.487 165.143H203.572C204.256 165.143 204.912 164.871 205.395 164.387C205.878 163.903 206.15 163.247 206.15 162.562V126.437C206.15 125.753 205.878 125.097 205.395 124.613C204.912 124.129 204.256 123.857 203.572 123.857H167.487ZM66.9639 129.018H97.8941V159.982H66.9639V129.018ZM118.514 129.018H149.444V159.982H118.514V129.018ZM170.065 129.018H200.995V159.982H170.065V129.018ZM10.2585 180.625H257.7V196.107H224.667C224.37 196.055 224.066 196.055 223.77 196.107H44.1683C44.0257 196.078 43.8808 196.061 43.7353 196.056C43.607 196.063 43.4796 196.081 43.3539 196.107H10.2585V180.625ZM20.5685 201.268H41.1887V283.839H30.8786V265.777C30.8786 265.092 30.6071 264.436 30.1237 263.952C29.6403 263.468 28.9847 263.196 28.3011 263.196H20.5685V201.268ZM46.3437 201.268H221.615V283.839H206.15V214.17C206.15 213.485 205.878 212.829 205.395 212.345C204.912 211.861 204.256 211.589 203.572 211.589H64.3864C63.7028 211.589 63.0472 211.861 62.5638 212.345C62.0804 212.829 61.8088 213.485 61.8088 214.17V283.839H46.3437V201.268ZM226.77 201.268H247.39V263.196H239.658C238.974 263.196 238.318 263.468 237.835 263.952C237.352 264.436 237.08 265.092 237.08 265.777V283.839H226.77V201.268ZM66.9639 216.75H108.204V283.839H66.9639V216.75ZM113.359 216.75H154.599V283.839H113.359V216.75ZM159.755 216.75H200.995V283.839H159.755V216.75ZM10.2585 268.357H25.7236V283.839H10.2585V268.357ZM242.235 268.357H257.7V283.839H242.235V268.357Z" fill="white" fill-opacity="0.03"/>
</svg>
