<svg width="25" height="21" viewBox="0 0 25 21" fill="none" xmlns="http://www.w3.org/2000/svg">
<path d="M0 10.78V14.85C0 16.2424 0.553123 17.5778 1.53769 18.5623C2.52226 19.5469 3.85761 20.1 5.25 20.1H19.5C20.8916 20.0974 22.2254 19.5434 23.2094 18.5594C24.1934 17.5754 24.7474 16.2416 24.75 14.85V10.78C24.75 10.2496 24.5393 9.74087 24.1642 9.3658C23.7891 8.99073 23.2804 8.78001 22.75 8.78001H2C1.46957 8.78001 0.960858 8.99073 0.585785 9.3658C0.210712 9.74087 0 10.2496 0 10.78ZM12.14 15.96H5.54999C5.15216 15.96 4.77065 15.802 4.48935 15.5207C4.20805 15.2394 4.04999 14.8578 4.04999 14.46C4.04999 14.0622 4.20805 13.6807 4.48935 13.3994C4.77065 13.118 5.15216 12.96 5.54999 12.96H12.14C12.5378 12.96 12.9193 13.118 13.2007 13.3994C13.482 13.6807 13.64 14.0622 13.64 14.46C13.64 14.8578 13.482 15.2394 13.2007 15.5207C12.9193 15.802 12.5378 15.96 12.14 15.96ZM24.72 5.26001C24.72 5.48588 24.6755 5.70955 24.5891 5.91823C24.5026 6.12691 24.3759 6.31651 24.2162 6.47623C24.0565 6.63594 23.8669 6.76264 23.6582 6.84908C23.4495 6.93551 23.2259 6.98001 23 6.98001H1.72C1.49413 6.98001 1.27048 6.93551 1.0618 6.84908C0.853118 6.76264 0.663501 6.63594 0.503784 6.47623C0.344067 6.31651 0.217358 6.12691 0.13092 5.91823C0.0444823 5.70955 0 5.48588 0 5.26001C0 3.86497 0.554178 2.52706 1.54062 1.54062C2.52706 0.554178 3.86497 0 5.26001 0H19.5C20.8881 0.0105562 22.2157 0.569403 23.1935 1.5547C24.1713 2.54 24.72 3.87187 24.72 5.26001Z" fill="white"/>
</svg>
