<svg width="20" height="18" viewBox="0 0 20 18" fill="none" xmlns="http://www.w3.org/2000/svg">
<path d="M20 0.972973V17.027C20 17.5622 19.5814 18 19.0698 18H6.95349C6.44186 18 6.04651 17.5622 6.04651 17.027V12.5757C6.04651 12.0405 6.46512 11.6027 6.97674 11.6027C7.48837 11.6027 7.90698 12.0405 7.90698 12.5757V16.0541H18.1395V1.94595H7.90698V5.42432C7.90698 5.95946 7.48837 6.3973 6.97674 6.3973C6.46512 6.3973 6.04651 5.95946 6.04651 5.42432V0.972973C6.04651 0.437838 6.44186 0 6.95349 0H19.0698C19.5814 0 20 0.437838 20 0.972973ZM10.1163 12.1378C9.74419 12.527 9.76744 13.1351 10.1163 13.5243C10.3023 13.7189 10.5349 13.8162 10.7674 13.8162C11 13.8162 11.2558 13.7189 11.4186 13.5243L15.0698 9.68108C15.4186 9.29189 15.4186 8.68378 15.0698 8.31892L11.4419 4.42703C11.0698 4.03784 10.4884 4.03784 10.1163 4.42703C9.74419 4.81622 9.74419 5.42432 10.1163 5.81351L12.186 8.0027L0.930233 8.02703C0.418605 8.02703 0 8.46486 0 9C0 9.53514 0.418605 9.97297 0.930233 9.97297L12.186 9.94865L10.1163 12.1378Z" fill="white"/>
</svg>
