<svg width="30" height="20" viewBox="0 0 30 20" fill="none" xmlns="http://www.w3.org/2000/svg">
<path d="M16.0719 15.8417C16.0719 15.6519 15.9166 15.4966 15.7268 15.4966C15.537 15.4966 15.3817 15.6519 15.3817 15.8417V19.1551C15.3817 19.3449 15.537 19.5002 15.7268 19.5002H24.5797C24.7695 19.5002 24.9248 19.3449 24.9248 19.1551V16.1523C24.9248 15.9625 24.7695 15.8072 24.5797 15.8072C24.3898 15.8072 24.2345 15.9625 24.2345 16.1523V18.8099H16.0719V15.8417Z" fill="url(#paint0_linear_3721_12426)"/>
<path d="M26.4949 19.4998C26.6848 19.4998 26.8401 19.3444 26.8401 19.1546C26.8401 18.9648 26.6848 18.8095 26.4949 18.8095H13.811C13.6212 18.8095 13.4659 18.9648 13.4659 19.1546C13.4659 19.3444 13.6212 19.4998 13.811 19.4998H26.4949ZM19.8682 5.6251C19.8682 5.81493 20.0235 5.97024 20.2134 5.97024C20.4032 5.97024 20.5585 5.81493 20.5585 5.6251V2.70866C20.5585 2.51883 20.4032 2.36352 20.2134 2.36352C20.0235 2.36352 19.8682 2.51883 19.8682 2.70866V5.6251ZM27.5303 2.12192C27.7202 2.12192 27.8755 1.96661 27.8755 1.77678C27.8755 1.58695 27.7202 1.43164 27.5303 1.43164H21.1452C20.9554 1.43164 20.8001 1.58695 20.8001 1.77678C20.8001 1.96661 20.9554 2.12192 21.1452 2.12192H27.5303ZM19.2815 2.12192C19.4713 2.12192 19.6266 1.96661 19.6266 1.77678C19.6266 1.58695 19.4713 1.43164 19.2815 1.43164H12.8964C12.7066 1.43164 12.5512 1.58695 12.5512 1.77678C12.5512 1.96661 12.7066 2.12192 12.8964 2.12192H19.2815Z" fill="url(#paint1_linear_3721_12426)"/>
<path d="M20.2132 0.5C19.8508 0.5 19.5402 0.638056 19.3158 0.879655C19.0742 1.104 18.9362 1.41462 18.9362 1.77702C18.9362 2.12216 19.0742 2.45004 19.3158 2.67439C19.5402 2.89873 19.8508 3.05404 20.2132 3.05404C20.5584 3.05404 20.8862 2.89873 21.1106 2.67439C21.3349 2.45004 21.4902 2.12216 21.4902 1.77702C21.4902 1.41462 21.3349 1.104 21.1106 0.879655C20.8862 0.638056 20.5584 0.5 20.2132 0.5Z" fill="url(#paint2_linear_3721_12426)"/>
<path fill-rule="evenodd" clip-rule="evenodd" d="M29.1007 14.8232C28.6521 15.7206 26.9609 16.2211 24.9245 16.4627C24.8555 16.4627 24.7692 16.4799 24.7002 16.4799C24.5449 16.4972 24.3896 16.5144 24.2343 16.5317C21.1625 16.8251 17.5213 16.6352 16.365 16.3764C16.2788 16.3419 16.1752 16.3246 16.0717 16.3073C15.8301 16.2383 15.6057 16.1693 15.3814 16.1003C13.5867 15.4963 12.7928 14.5644 12.1198 13.7878C11.5676 13.1493 11.1017 12.5971 10.1353 12.4935C9.68657 12.4418 9.04807 12.3382 8.37504 12.2519C6.95996 12.0449 5.3378 11.8205 4.54398 11.8033C4.14707 12.2692 3.93998 12.6488 3.80193 12.925C3.40502 13.667 3.26696 13.9086 1.74834 13.8914C1.57577 13.8914 1.43771 13.7706 1.42046 13.598L0.00537872 3.9513C-0.0291348 3.76148 0.108921 3.58891 0.281492 3.55439C0.316006 3.55439 0.333263 3.55439 0.350519 3.55439C2.97359 3.45085 3.75016 5.59072 4.57849 7.85139L10.9981 7.86865C11.4813 7.74785 11.9127 7.47174 12.4132 7.14385C13.6384 6.35003 15.2779 5.2801 19.385 5.26284C19.5576 5.26284 19.7129 5.26284 19.8682 5.26284C20.0926 5.2801 20.3342 5.2801 20.5585 5.29735C22.2497 5.36638 23.6303 5.60798 24.821 6.17746C26.3051 6.885 27.4441 8.04122 28.4105 9.92224C28.7383 10.5607 29.118 11.3546 29.3078 12.2002C29.5149 13.0803 29.5149 14.0122 29.1007 14.8232ZM19.0054 10.3019C19.4541 11.4409 19.9373 12.5798 20.1098 12.8559C20.1789 12.9595 20.2824 13.0112 20.4032 13.0112L26.9436 12.9422C27.1162 12.9595 27.2888 12.8214 27.306 12.6316C27.3578 12.1829 27.3233 11.7687 27.237 11.3718C26.9609 10.1293 26.0635 9.12841 24.89 8.42088C23.7511 7.71334 22.3532 7.26465 20.9727 7.1266C20.0235 7.0058 19.0917 7.04031 18.2978 7.23014C18.108 7.26465 17.9872 7.45448 18.039 7.64431C18.108 7.98945 18.5394 9.16293 19.0054 10.3019Z" fill="url(#paint3_linear_3721_12426)"/>
<defs>
<linearGradient id="paint0_linear_3721_12426" x1="19.8246" y1="17.0782" x2="19.9588" y2="20.3925" gradientUnits="userSpaceOnUse">
<stop stop-color="#9CACB5"/>
<stop offset="1" stop-color="white"/>
</linearGradient>
<linearGradient id="paint1_linear_3721_12426" x1="19.6857" y1="8.56956" x2="21.3692" y2="23.3596" gradientUnits="userSpaceOnUse">
<stop stop-color="#9CACB5"/>
<stop offset="1" stop-color="white"/>
</linearGradient>
<linearGradient id="paint2_linear_3721_12426" x1="20.1253" y1="1.50899" x2="20.3278" y2="3.60718" gradientUnits="userSpaceOnUse">
<stop stop-color="#9CACB5"/>
<stop offset="1" stop-color="white"/>
</linearGradient>
<linearGradient id="paint3_linear_3721_12426" x1="13.708" y1="8.73755" x2="14.1758" y2="19.6038" gradientUnits="userSpaceOnUse">
<stop stop-color="#9CACB5"/>
<stop offset="1" stop-color="white"/>
</linearGradient>
</defs>
</svg>
