<svg width="42" height="38" viewBox="0 0 42 38" fill="none" xmlns="http://www.w3.org/2000/svg">
<path d="M2.17413 19.3357L21.005 3.04569L39.8359 19.3357C40.0998 19.559 40.4412 19.6695 40.7862 19.6431C41.1311 19.6168 41.4517 19.4557 41.6784 19.195C41.9052 18.9342 42.0197 18.5947 41.9972 18.2501C41.9747 17.9055 41.817 17.5837 41.5583 17.3545L21.8662 0.320206C21.6275 0.113688 21.3222 0 21.0063 0C20.6905 0 20.3852 0.113688 20.1465 0.320206L13.1282 6.38965V3.93147C13.1282 3.23643 12.8516 2.56985 12.3592 2.07839C11.8668 1.58692 11.1989 1.31081 10.5026 1.31081C9.80622 1.31081 9.13839 1.58692 8.64599 2.07839C8.15359 2.56985 7.87696 3.23643 7.87696 3.93147V10.9312L0.451727 17.3545C0.18914 17.5828 0.0278969 17.9057 0.00329248 18.2525C-0.0213119 18.5993 0.092727 18.9416 0.320447 19.2047C0.798308 19.7498 1.62538 19.81 2.17413 19.3357ZM15.7538 24.8967H26.2563V38H34.1331C34.8295 38 35.4973 37.7239 35.9897 37.2324C36.4821 36.741 36.7587 36.0744 36.7587 35.3793V22.5355C36.7587 21.7493 36.4069 21.0077 35.7977 20.5097L22.6697 9.76767C22.2007 9.38263 21.6123 9.17211 21.005 9.17211C20.3978 9.17211 19.8094 9.38263 19.3404 9.76767L6.21233 20.5097C5.91154 20.755 5.66924 21.0641 5.50302 21.4145C5.3368 21.7649 5.25083 22.1478 5.25135 22.5355V35.3793C5.25135 36.0744 5.52798 36.741 6.02037 37.2324C6.51277 37.7239 7.18061 38 7.87696 38H15.7538V24.8967Z" fill="white"/>
</svg>
